M48
; DRILL file {KiCad 8.0.2} date 2024-12-10T11:29:56+0100
; FORMAT={-:-/ absolute / metric / decimal}
; #@! TF.CreationDate,2024-12-10T11:29:56+01:00
; #@! TF.GenerationSoftware,Kicad,Pcbnew,8.0.2
; #@! TF.FileFunction,Plated,1,2,PTH
FMAT,2
METRIC
; #@! TA.AperFunction,Plated,PTH,ViaDrill
T1C0.800
; #@! TA.AperFunction,Plated,PTH,ComponentDrill
T2C0.800
; #@! TA.AperFunction,Plated,PTH,ComponentDrill
T3C0.950
; #@! TA.AperFunction,Plated,PTH,ComponentDrill
T4C1.000
; #@! TA.AperFunction,Plated,PTH,ComponentDrill
T5C1.100
%
G90
G05
T1
X55.8Y-106.7
X59.05Y-75.725
X59.225Y-70.125
X60.1Y-86.8
X61.75Y-106.6
X65.11Y-88.69
X66.35Y-81.513
X69.65Y-81.5
X69.8Y-86.7
X70.5Y-88.6
X78.2Y-84.8
X78.2Y-92.333
T2
X54.39Y-110.7
X57.49Y-100.1
X62.01Y-110.7
X64.79Y-126.1
X65.11Y-100.1
X65.15Y-102.65
X65.15Y-107.73
X65.65Y-110.86
X65.65Y-115.94
X67.69Y-105.19
X68.19Y-113.4
X70.035Y-120.915
X70.89Y-98.4
X70.89Y-107.6
X70.89Y-113.5
X70.91Y-92.81
X71.09Y-102.1
X72.41Y-126.1
X72.575Y-118.375
X72.575Y-123.455
X73.45Y-90.27
X73.45Y-95.35
X76.39Y-120.3
X78.51Y-98.4
X78.51Y-107.6
X78.51Y-113.5
X78.71Y-102.1
X81.08Y-107.735
X81.08Y-110.275
X81.18Y-113.535
X81.18Y-116.075
X81.38Y-101.935
X81.38Y-104.475
X83.1Y-88.5
X83.1Y-96.12
X84.01Y-120.3
X86.58Y-120.335
X86.58Y-122.875
X88.7Y-107.735
X88.7Y-110.275
X88.8Y-113.535
X88.8Y-116.075
X89.0Y-101.935
X89.0Y-104.475
X91.8Y-91.5
X91.905Y-97.2
X92.47Y-105.4
X92.48Y-102.278
X92.48Y-108.4
X92.48Y-111.5
X94.1Y-77.29
X94.1Y-84.91
X94.2Y-120.335
X94.2Y-122.875
X94.3Y-91.5
X94.405Y-97.2
X97.605Y-91.4
X97.705Y-97.0
X100.09Y-105.4
X100.1Y-102.278
X100.1Y-108.4
X100.1Y-111.5
X100.105Y-91.4
X100.205Y-97.0
X121.955Y-96.275
X122.005Y-90.6
X122.195Y-117.2
X122.295Y-111.7
X122.51Y-71.85
X122.515Y-78.15
X122.61Y-83.65
X124.455Y-96.275
X124.505Y-90.6
X124.695Y-117.2
X124.795Y-111.7
X125.01Y-71.85
X125.015Y-78.15
X125.11Y-83.65
T3
X88.0Y-90.9
X88.0Y-93.4
X88.0Y-95.9
X98.7Y-80.1
X98.7Y-82.6
X98.7Y-85.1
X118.3Y-69.5
X118.3Y-72.0
X118.3Y-74.5
X128.7Y-112.4
X128.7Y-114.9
X128.7Y-117.4
T4
X57.3Y-80.3
X57.3Y-82.8
X71.0Y-78.96
X71.0Y-81.5
X73.54Y-78.96
X73.54Y-81.5
X76.08Y-78.96
X76.08Y-81.5
X103.5Y-84.1
X103.5Y-86.64
X103.5Y-89.18
X103.5Y-91.72
X103.5Y-94.26
X103.5Y-96.8
X103.5Y-99.34
X103.5Y-101.88
X103.5Y-104.42
X103.5Y-106.96
X103.5Y-109.5
X103.5Y-112.04
X103.5Y-114.58
X103.5Y-117.12
X103.5Y-119.66
X108.9Y-69.6
X111.4Y-69.6
X118.74Y-84.1
X118.74Y-86.64
X118.74Y-89.18
X118.74Y-91.72
X118.74Y-94.26
X118.74Y-96.8
X118.74Y-99.34
X118.74Y-101.88
X118.74Y-104.42
X118.74Y-106.96
X118.74Y-109.5
X118.74Y-112.04
X118.74Y-114.58
X118.74Y-117.12
X118.74Y-119.66
X128.6Y-91.3
X128.6Y-93.8
X128.6Y-100.1
X128.6Y-102.6
T5
X64.6Y-78.12
X64.6Y-80.66
X64.6Y-83.2
M30
