%TF.GenerationSoftware,KiCad,Pcbnew,8.0.2*%
%TF.CreationDate,2024-12-10T11:29:45+01:00*%
%TF.ProjectId,R4I_LINEAR_ACTUATOR_CONTROL,5234495f-4c49-44e4-9541-525f41435455,rev?*%
%TF.SameCoordinates,Original*%
%TF.FileFunction,Legend,Top*%
%TF.FilePolarity,Positive*%
%FSLAX46Y46*%
G04 Gerber Fmt 4.6, Leading zero omitted, Abs format (unit mm)*
G04 Created by KiCad (PCBNEW 8.0.2) date 2024-12-10 11:29:45*
%MOMM*%
%LPD*%
G01*
G04 APERTURE LIST*
%ADD10C,0.150000*%
%ADD11C,0.120000*%
G04 APERTURE END LIST*
D10*
X77864819Y-80563333D02*
X78579104Y-80563333D01*
X78579104Y-80563333D02*
X78721961Y-80610952D01*
X78721961Y-80610952D02*
X78817200Y-80706190D01*
X78817200Y-80706190D02*
X78864819Y-80849047D01*
X78864819Y-80849047D02*
X78864819Y-80944285D01*
X77864819Y-79658571D02*
X77864819Y-79849047D01*
X77864819Y-79849047D02*
X77912438Y-79944285D01*
X77912438Y-79944285D02*
X77960057Y-79991904D01*
X77960057Y-79991904D02*
X78102914Y-80087142D01*
X78102914Y-80087142D02*
X78293390Y-80134761D01*
X78293390Y-80134761D02*
X78674342Y-80134761D01*
X78674342Y-80134761D02*
X78769580Y-80087142D01*
X78769580Y-80087142D02*
X78817200Y-80039523D01*
X78817200Y-80039523D02*
X78864819Y-79944285D01*
X78864819Y-79944285D02*
X78864819Y-79753809D01*
X78864819Y-79753809D02*
X78817200Y-79658571D01*
X78817200Y-79658571D02*
X78769580Y-79610952D01*
X78769580Y-79610952D02*
X78674342Y-79563333D01*
X78674342Y-79563333D02*
X78436247Y-79563333D01*
X78436247Y-79563333D02*
X78341009Y-79610952D01*
X78341009Y-79610952D02*
X78293390Y-79658571D01*
X78293390Y-79658571D02*
X78245771Y-79753809D01*
X78245771Y-79753809D02*
X78245771Y-79944285D01*
X78245771Y-79944285D02*
X78293390Y-80039523D01*
X78293390Y-80039523D02*
X78341009Y-80087142D01*
X78341009Y-80087142D02*
X78436247Y-80134761D01*
X109858095Y-119114819D02*
X109858095Y-119924342D01*
X109858095Y-119924342D02*
X109905714Y-120019580D01*
X109905714Y-120019580D02*
X109953333Y-120067200D01*
X109953333Y-120067200D02*
X110048571Y-120114819D01*
X110048571Y-120114819D02*
X110239047Y-120114819D01*
X110239047Y-120114819D02*
X110334285Y-120067200D01*
X110334285Y-120067200D02*
X110381904Y-120019580D01*
X110381904Y-120019580D02*
X110429523Y-119924342D01*
X110429523Y-119924342D02*
X110429523Y-119114819D01*
X110858095Y-120067200D02*
X111000952Y-120114819D01*
X111000952Y-120114819D02*
X111239047Y-120114819D01*
X111239047Y-120114819D02*
X111334285Y-120067200D01*
X111334285Y-120067200D02*
X111381904Y-120019580D01*
X111381904Y-120019580D02*
X111429523Y-119924342D01*
X111429523Y-119924342D02*
X111429523Y-119829104D01*
X111429523Y-119829104D02*
X111381904Y-119733866D01*
X111381904Y-119733866D02*
X111334285Y-119686247D01*
X111334285Y-119686247D02*
X111239047Y-119638628D01*
X111239047Y-119638628D02*
X111048571Y-119591009D01*
X111048571Y-119591009D02*
X110953333Y-119543390D01*
X110953333Y-119543390D02*
X110905714Y-119495771D01*
X110905714Y-119495771D02*
X110858095Y-119400533D01*
X110858095Y-119400533D02*
X110858095Y-119305295D01*
X110858095Y-119305295D02*
X110905714Y-119210057D01*
X110905714Y-119210057D02*
X110953333Y-119162438D01*
X110953333Y-119162438D02*
X111048571Y-119114819D01*
X111048571Y-119114819D02*
X111286666Y-119114819D01*
X111286666Y-119114819D02*
X111429523Y-119162438D01*
X112191428Y-119591009D02*
X112334285Y-119638628D01*
X112334285Y-119638628D02*
X112381904Y-119686247D01*
X112381904Y-119686247D02*
X112429523Y-119781485D01*
X112429523Y-119781485D02*
X112429523Y-119924342D01*
X112429523Y-119924342D02*
X112381904Y-120019580D01*
X112381904Y-120019580D02*
X112334285Y-120067200D01*
X112334285Y-120067200D02*
X112239047Y-120114819D01*
X112239047Y-120114819D02*
X111858095Y-120114819D01*
X111858095Y-120114819D02*
X111858095Y-119114819D01*
X111858095Y-119114819D02*
X112191428Y-119114819D01*
X112191428Y-119114819D02*
X112286666Y-119162438D01*
X112286666Y-119162438D02*
X112334285Y-119210057D01*
X112334285Y-119210057D02*
X112381904Y-119305295D01*
X112381904Y-119305295D02*
X112381904Y-119400533D01*
X112381904Y-119400533D02*
X112334285Y-119495771D01*
X112334285Y-119495771D02*
X112286666Y-119543390D01*
X112286666Y-119543390D02*
X112191428Y-119591009D01*
X112191428Y-119591009D02*
X111858095Y-119591009D01*
X89628095Y-124659819D02*
X89628095Y-125469342D01*
X89628095Y-125469342D02*
X89675714Y-125564580D01*
X89675714Y-125564580D02*
X89723333Y-125612200D01*
X89723333Y-125612200D02*
X89818571Y-125659819D01*
X89818571Y-125659819D02*
X90009047Y-125659819D01*
X90009047Y-125659819D02*
X90104285Y-125612200D01*
X90104285Y-125612200D02*
X90151904Y-125564580D01*
X90151904Y-125564580D02*
X90199523Y-125469342D01*
X90199523Y-125469342D02*
X90199523Y-124659819D01*
X91104285Y-124993152D02*
X91104285Y-125659819D01*
X90866190Y-124612200D02*
X90628095Y-125326485D01*
X90628095Y-125326485D02*
X91247142Y-125326485D01*
D11*
%TO.C,C11*%
X126009888Y-97750000D02*
X125509888Y-97750000D01*
X125759888Y-98000000D02*
X125759888Y-97500000D01*
X123205113Y-98855000D02*
X123205113Y-93695000D01*
X123165113Y-98855000D02*
X123165113Y-93695000D01*
X123125113Y-98854000D02*
X123125113Y-93696000D01*
X123085113Y-98853000D02*
X123085113Y-93697000D01*
X123045113Y-98851000D02*
X123045113Y-93699000D01*
X123005113Y-98848000D02*
X123005113Y-93702000D01*
X122965113Y-98844000D02*
X122965113Y-97315000D01*
X122965113Y-95235000D02*
X122965113Y-93706000D01*
X122925113Y-98840000D02*
X122925113Y-97315000D01*
X122925113Y-95235000D02*
X122925113Y-93710000D01*
X122885113Y-98836000D02*
X122885113Y-97315000D01*
X122885113Y-95235000D02*
X122885113Y-93714000D01*
X122845113Y-98831000D02*
X122845113Y-97315000D01*
X122845113Y-95235000D02*
X122845113Y-93719000D01*
X122805113Y-98825000D02*
X122805113Y-97315000D01*
X122805113Y-95235000D02*
X122805113Y-93725000D01*
X122765113Y-98818000D02*
X122765113Y-97315000D01*
X122765113Y-95235000D02*
X122765113Y-93732000D01*
X122725113Y-98811000D02*
X122725113Y-97315000D01*
X122725113Y-95235000D02*
X122725113Y-93739000D01*
X122685113Y-98803000D02*
X122685113Y-97315000D01*
X122685113Y-95235000D02*
X122685113Y-93747000D01*
X122645113Y-98795000D02*
X122645113Y-97315000D01*
X122645113Y-95235000D02*
X122645113Y-93755000D01*
X122605113Y-98786000D02*
X122605113Y-97315000D01*
X122605113Y-95235000D02*
X122605113Y-93764000D01*
X122565113Y-98776000D02*
X122565113Y-97315000D01*
X122565113Y-95235000D02*
X122565113Y-93774000D01*
X122525113Y-98766000D02*
X122525113Y-97315000D01*
X122525113Y-95235000D02*
X122525113Y-93784000D01*
X122484113Y-98755000D02*
X122484113Y-97315000D01*
X122484113Y-95235000D02*
X122484113Y-93795000D01*
X122444113Y-98743000D02*
X122444113Y-97315000D01*
X122444113Y-95235000D02*
X122444113Y-93807000D01*
X122404113Y-98730000D02*
X122404113Y-97315000D01*
X122404113Y-95235000D02*
X122404113Y-93820000D01*
X122364113Y-98717000D02*
X122364113Y-97315000D01*
X122364113Y-95235000D02*
X122364113Y-93833000D01*
X122324113Y-98703000D02*
X122324113Y-97315000D01*
X122324113Y-95235000D02*
X122324113Y-93847000D01*
X122284113Y-98689000D02*
X122284113Y-97315000D01*
X122284113Y-95235000D02*
X122284113Y-93861000D01*
X122244113Y-98673000D02*
X122244113Y-97315000D01*
X122244113Y-95235000D02*
X122244113Y-93877000D01*
X122204113Y-98657000D02*
X122204113Y-97315000D01*
X122204113Y-95235000D02*
X122204113Y-93893000D01*
X122164113Y-98640000D02*
X122164113Y-97315000D01*
X122164113Y-95235000D02*
X122164113Y-93910000D01*
X122124113Y-98623000D02*
X122124113Y-97315000D01*
X122124113Y-95235000D02*
X122124113Y-93927000D01*
X122084113Y-98604000D02*
X122084113Y-97315000D01*
X122084113Y-95235000D02*
X122084113Y-93946000D01*
X122044113Y-98585000D02*
X122044113Y-97315000D01*
X122044113Y-95235000D02*
X122044113Y-93965000D01*
X122004113Y-98565000D02*
X122004113Y-97315000D01*
X122004113Y-95235000D02*
X122004113Y-93985000D01*
X121964113Y-98543000D02*
X121964113Y-97315000D01*
X121964113Y-95235000D02*
X121964113Y-94007000D01*
X121924113Y-98522000D02*
X121924113Y-97315000D01*
X121924113Y-95235000D02*
X121924113Y-94028000D01*
X121884113Y-98499000D02*
X121884113Y-97315000D01*
X121884113Y-95235000D02*
X121884113Y-94051000D01*
X121844113Y-98475000D02*
X121844113Y-97315000D01*
X121844113Y-95235000D02*
X121844113Y-94075000D01*
X121804113Y-98450000D02*
X121804113Y-97315000D01*
X121804113Y-95235000D02*
X121804113Y-94100000D01*
X121764113Y-98424000D02*
X121764113Y-97315000D01*
X121764113Y-95235000D02*
X121764113Y-94126000D01*
X121724113Y-98397000D02*
X121724113Y-97315000D01*
X121724113Y-95235000D02*
X121724113Y-94153000D01*
X121684113Y-98370000D02*
X121684113Y-97315000D01*
X121684113Y-95235000D02*
X121684113Y-94180000D01*
X121644113Y-98340000D02*
X121644113Y-97315000D01*
X121644113Y-95235000D02*
X121644113Y-94210000D01*
X121604113Y-98310000D02*
X121604113Y-97315000D01*
X121604113Y-95235000D02*
X121604113Y-94240000D01*
X121564113Y-98279000D02*
X121564113Y-97315000D01*
X121564113Y-95235000D02*
X121564113Y-94271000D01*
X121524113Y-98246000D02*
X121524113Y-97315000D01*
X121524113Y-95235000D02*
X121524113Y-94304000D01*
X121484113Y-98212000D02*
X121484113Y-97315000D01*
X121484113Y-95235000D02*
X121484113Y-94338000D01*
X121444113Y-98176000D02*
X121444113Y-97315000D01*
X121444113Y-95235000D02*
X121444113Y-94374000D01*
X121404113Y-98139000D02*
X121404113Y-97315000D01*
X121404113Y-95235000D02*
X121404113Y-94411000D01*
X121364113Y-98101000D02*
X121364113Y-97315000D01*
X121364113Y-95235000D02*
X121364113Y-94449000D01*
X121324113Y-98060000D02*
X121324113Y-97315000D01*
X121324113Y-95235000D02*
X121324113Y-94490000D01*
X121284113Y-98018000D02*
X121284113Y-97315000D01*
X121284113Y-95235000D02*
X121284113Y-94532000D01*
X121244113Y-97974000D02*
X121244113Y-97315000D01*
X121244113Y-95235000D02*
X121244113Y-94576000D01*
X121204113Y-97928000D02*
X121204113Y-97315000D01*
X121204113Y-95235000D02*
X121204113Y-94622000D01*
X121164113Y-97880000D02*
X121164113Y-97315000D01*
X121164113Y-95235000D02*
X121164113Y-94670000D01*
X121124113Y-97829000D02*
X121124113Y-97315000D01*
X121124113Y-95235000D02*
X121124113Y-94721000D01*
X121084113Y-97775000D02*
X121084113Y-97315000D01*
X121084113Y-95235000D02*
X121084113Y-94775000D01*
X121044113Y-97718000D02*
X121044113Y-97315000D01*
X121044113Y-95235000D02*
X121044113Y-94832000D01*
X121004113Y-97658000D02*
X121004113Y-97315000D01*
X121004113Y-95235000D02*
X121004113Y-94892000D01*
X120964113Y-97594000D02*
X120964113Y-97315000D01*
X120964113Y-95235000D02*
X120964113Y-94956000D01*
X120924113Y-97526000D02*
X120924113Y-97315000D01*
X120924113Y-95235000D02*
X120924113Y-95024000D01*
X120884113Y-97453000D02*
X120884113Y-95097000D01*
X120844113Y-97373000D02*
X120844113Y-95177000D01*
X120804113Y-97286000D02*
X120804113Y-95264000D01*
X120764113Y-97190000D02*
X120764113Y-95360000D01*
X120724113Y-97080000D02*
X120724113Y-95470000D01*
X120684113Y-96952000D02*
X120684113Y-95598000D01*
X120644113Y-96793000D02*
X120644113Y-95757000D01*
X120604113Y-96559000D02*
X120604113Y-95991000D01*
X125825113Y-96275000D02*
G75*
G02*
X120585113Y-96275000I-2620000J0D01*
G01*
X120585113Y-96275000D02*
G75*
G02*
X125825113Y-96275000I2620000J0D01*
G01*
%TO.C,C10*%
X126059888Y-92075000D02*
X125559888Y-92075000D01*
X125809888Y-92325000D02*
X125809888Y-91825000D01*
X123255113Y-93180000D02*
X123255113Y-88020000D01*
X123215113Y-93180000D02*
X123215113Y-88020000D01*
X123175113Y-93179000D02*
X123175113Y-88021000D01*
X123135113Y-93178000D02*
X123135113Y-88022000D01*
X123095113Y-93176000D02*
X123095113Y-88024000D01*
X123055113Y-93173000D02*
X123055113Y-88027000D01*
X123015113Y-93169000D02*
X123015113Y-91640000D01*
X123015113Y-89560000D02*
X123015113Y-88031000D01*
X122975113Y-93165000D02*
X122975113Y-91640000D01*
X122975113Y-89560000D02*
X122975113Y-88035000D01*
X122935113Y-93161000D02*
X122935113Y-91640000D01*
X122935113Y-89560000D02*
X122935113Y-88039000D01*
X122895113Y-93156000D02*
X122895113Y-91640000D01*
X122895113Y-89560000D02*
X122895113Y-88044000D01*
X122855113Y-93150000D02*
X122855113Y-91640000D01*
X122855113Y-89560000D02*
X122855113Y-88050000D01*
X122815113Y-93143000D02*
X122815113Y-91640000D01*
X122815113Y-89560000D02*
X122815113Y-88057000D01*
X122775113Y-93136000D02*
X122775113Y-91640000D01*
X122775113Y-89560000D02*
X122775113Y-88064000D01*
X122735113Y-93128000D02*
X122735113Y-91640000D01*
X122735113Y-89560000D02*
X122735113Y-88072000D01*
X122695113Y-93120000D02*
X122695113Y-91640000D01*
X122695113Y-89560000D02*
X122695113Y-88080000D01*
X122655113Y-93111000D02*
X122655113Y-91640000D01*
X122655113Y-89560000D02*
X122655113Y-88089000D01*
X122615113Y-93101000D02*
X122615113Y-91640000D01*
X122615113Y-89560000D02*
X122615113Y-88099000D01*
X122575113Y-93091000D02*
X122575113Y-91640000D01*
X122575113Y-89560000D02*
X122575113Y-88109000D01*
X122534113Y-93080000D02*
X122534113Y-91640000D01*
X122534113Y-89560000D02*
X122534113Y-88120000D01*
X122494113Y-93068000D02*
X122494113Y-91640000D01*
X122494113Y-89560000D02*
X122494113Y-88132000D01*
X122454113Y-93055000D02*
X122454113Y-91640000D01*
X122454113Y-89560000D02*
X122454113Y-88145000D01*
X122414113Y-93042000D02*
X122414113Y-91640000D01*
X122414113Y-89560000D02*
X122414113Y-88158000D01*
X122374113Y-93028000D02*
X122374113Y-91640000D01*
X122374113Y-89560000D02*
X122374113Y-88172000D01*
X122334113Y-93014000D02*
X122334113Y-91640000D01*
X122334113Y-89560000D02*
X122334113Y-88186000D01*
X122294113Y-92998000D02*
X122294113Y-91640000D01*
X122294113Y-89560000D02*
X122294113Y-88202000D01*
X122254113Y-92982000D02*
X122254113Y-91640000D01*
X122254113Y-89560000D02*
X122254113Y-88218000D01*
X122214113Y-92965000D02*
X122214113Y-91640000D01*
X122214113Y-89560000D02*
X122214113Y-88235000D01*
X122174113Y-92948000D02*
X122174113Y-91640000D01*
X122174113Y-89560000D02*
X122174113Y-88252000D01*
X122134113Y-92929000D02*
X122134113Y-91640000D01*
X122134113Y-89560000D02*
X122134113Y-88271000D01*
X122094113Y-92910000D02*
X122094113Y-91640000D01*
X122094113Y-89560000D02*
X122094113Y-88290000D01*
X122054113Y-92890000D02*
X122054113Y-91640000D01*
X122054113Y-89560000D02*
X122054113Y-88310000D01*
X122014113Y-92868000D02*
X122014113Y-91640000D01*
X122014113Y-89560000D02*
X122014113Y-88332000D01*
X121974113Y-92847000D02*
X121974113Y-91640000D01*
X121974113Y-89560000D02*
X121974113Y-88353000D01*
X121934113Y-92824000D02*
X121934113Y-91640000D01*
X121934113Y-89560000D02*
X121934113Y-88376000D01*
X121894113Y-92800000D02*
X121894113Y-91640000D01*
X121894113Y-89560000D02*
X121894113Y-88400000D01*
X121854113Y-92775000D02*
X121854113Y-91640000D01*
X121854113Y-89560000D02*
X121854113Y-88425000D01*
X121814113Y-92749000D02*
X121814113Y-91640000D01*
X121814113Y-89560000D02*
X121814113Y-88451000D01*
X121774113Y-92722000D02*
X121774113Y-91640000D01*
X121774113Y-89560000D02*
X121774113Y-88478000D01*
X121734113Y-92695000D02*
X121734113Y-91640000D01*
X121734113Y-89560000D02*
X121734113Y-88505000D01*
X121694113Y-92665000D02*
X121694113Y-91640000D01*
X121694113Y-89560000D02*
X121694113Y-88535000D01*
X121654113Y-92635000D02*
X121654113Y-91640000D01*
X121654113Y-89560000D02*
X121654113Y-88565000D01*
X121614113Y-92604000D02*
X121614113Y-91640000D01*
X121614113Y-89560000D02*
X121614113Y-88596000D01*
X121574113Y-92571000D02*
X121574113Y-91640000D01*
X121574113Y-89560000D02*
X121574113Y-88629000D01*
X121534113Y-92537000D02*
X121534113Y-91640000D01*
X121534113Y-89560000D02*
X121534113Y-88663000D01*
X121494113Y-92501000D02*
X121494113Y-91640000D01*
X121494113Y-89560000D02*
X121494113Y-88699000D01*
X121454113Y-92464000D02*
X121454113Y-91640000D01*
X121454113Y-89560000D02*
X121454113Y-88736000D01*
X121414113Y-92426000D02*
X121414113Y-91640000D01*
X121414113Y-89560000D02*
X121414113Y-88774000D01*
X121374113Y-92385000D02*
X121374113Y-91640000D01*
X121374113Y-89560000D02*
X121374113Y-88815000D01*
X121334113Y-92343000D02*
X121334113Y-91640000D01*
X121334113Y-89560000D02*
X121334113Y-88857000D01*
X121294113Y-92299000D02*
X121294113Y-91640000D01*
X121294113Y-89560000D02*
X121294113Y-88901000D01*
X121254113Y-92253000D02*
X121254113Y-91640000D01*
X121254113Y-89560000D02*
X121254113Y-88947000D01*
X121214113Y-92205000D02*
X121214113Y-91640000D01*
X121214113Y-89560000D02*
X121214113Y-88995000D01*
X121174113Y-92154000D02*
X121174113Y-91640000D01*
X121174113Y-89560000D02*
X121174113Y-89046000D01*
X121134113Y-92100000D02*
X121134113Y-91640000D01*
X121134113Y-89560000D02*
X121134113Y-89100000D01*
X121094113Y-92043000D02*
X121094113Y-91640000D01*
X121094113Y-89560000D02*
X121094113Y-89157000D01*
X121054113Y-91983000D02*
X121054113Y-91640000D01*
X121054113Y-89560000D02*
X121054113Y-89217000D01*
X121014113Y-91919000D02*
X121014113Y-91640000D01*
X121014113Y-89560000D02*
X121014113Y-89281000D01*
X120974113Y-91851000D02*
X120974113Y-91640000D01*
X120974113Y-89560000D02*
X120974113Y-89349000D01*
X120934113Y-91778000D02*
X120934113Y-89422000D01*
X120894113Y-91698000D02*
X120894113Y-89502000D01*
X120854113Y-91611000D02*
X120854113Y-89589000D01*
X120814113Y-91515000D02*
X120814113Y-89685000D01*
X120774113Y-91405000D02*
X120774113Y-89795000D01*
X120734113Y-91277000D02*
X120734113Y-89923000D01*
X120694113Y-91118000D02*
X120694113Y-90082000D01*
X120654113Y-90884000D02*
X120654113Y-90316000D01*
X125875113Y-90600000D02*
G75*
G02*
X120635113Y-90600000I-2620000J0D01*
G01*
X120635113Y-90600000D02*
G75*
G02*
X125875113Y-90600000I2620000J0D01*
G01*
%TO.C,R3*%
X77970000Y-108970000D02*
X71430000Y-108970000D01*
X77970000Y-108640000D02*
X77970000Y-108970000D01*
X77970000Y-106560000D02*
X77970000Y-106230000D01*
X77970000Y-106230000D02*
X71430000Y-106230000D01*
X71430000Y-108970000D02*
X71430000Y-108640000D01*
X71430000Y-106230000D02*
X71430000Y-106560000D01*
%TO.C,R6*%
X83470000Y-121670000D02*
X76930000Y-121670000D01*
X83470000Y-121340000D02*
X83470000Y-121670000D01*
X83470000Y-119260000D02*
X83470000Y-118930000D01*
X83470000Y-118930000D02*
X76930000Y-118930000D01*
X76930000Y-121670000D02*
X76930000Y-121340000D01*
X76930000Y-118930000D02*
X76930000Y-119260000D01*
%TO.C,J9*%
X128710000Y-105510000D02*
X131210000Y-105510000D01*
X131210000Y-105510000D02*
X131210000Y-103010000D01*
X126890000Y-105210000D02*
X130910000Y-105210000D01*
X128600000Y-105210000D02*
X128600000Y-104710000D01*
X129410000Y-105210000D02*
X129410000Y-104210000D01*
X130910000Y-105210000D02*
X130910000Y-97490000D01*
X127390000Y-104710000D02*
X127390000Y-97990000D01*
X128600000Y-104710000D02*
X127390000Y-104710000D01*
X129410000Y-104210000D02*
X130910000Y-104210000D01*
X129410000Y-98490000D02*
X130910000Y-98490000D01*
X127390000Y-97990000D02*
X128600000Y-97990000D01*
X128600000Y-97990000D02*
X128600000Y-97490000D01*
X126890000Y-97490000D02*
X126890000Y-105210000D01*
X129410000Y-97490000D02*
X129410000Y-98490000D01*
X130910000Y-97490000D02*
X126890000Y-97490000D01*
%TO.C,C9*%
X120640113Y-115725000D02*
X121140113Y-115725000D01*
X120890113Y-115475000D02*
X120890113Y-115975000D01*
X123444888Y-114620000D02*
X123444888Y-119780000D01*
X123484888Y-114620000D02*
X123484888Y-119780000D01*
X123524888Y-114621000D02*
X123524888Y-119779000D01*
X123564888Y-114622000D02*
X123564888Y-119778000D01*
X123604888Y-114624000D02*
X123604888Y-119776000D01*
X123644888Y-114627000D02*
X123644888Y-119773000D01*
X123684888Y-114631000D02*
X123684888Y-116160000D01*
X123684888Y-118240000D02*
X123684888Y-119769000D01*
X123724888Y-114635000D02*
X123724888Y-116160000D01*
X123724888Y-118240000D02*
X123724888Y-119765000D01*
X123764888Y-114639000D02*
X123764888Y-116160000D01*
X123764888Y-118240000D02*
X123764888Y-119761000D01*
X123804888Y-114644000D02*
X123804888Y-116160000D01*
X123804888Y-118240000D02*
X123804888Y-119756000D01*
X123844888Y-114650000D02*
X123844888Y-116160000D01*
X123844888Y-118240000D02*
X123844888Y-119750000D01*
X123884888Y-114657000D02*
X123884888Y-116160000D01*
X123884888Y-118240000D02*
X123884888Y-119743000D01*
X123924888Y-114664000D02*
X123924888Y-116160000D01*
X123924888Y-118240000D02*
X123924888Y-119736000D01*
X123964888Y-114672000D02*
X123964888Y-116160000D01*
X123964888Y-118240000D02*
X123964888Y-119728000D01*
X124004888Y-114680000D02*
X124004888Y-116160000D01*
X124004888Y-118240000D02*
X124004888Y-119720000D01*
X124044888Y-114689000D02*
X124044888Y-116160000D01*
X124044888Y-118240000D02*
X124044888Y-119711000D01*
X124084888Y-114699000D02*
X124084888Y-116160000D01*
X124084888Y-118240000D02*
X124084888Y-119701000D01*
X124124888Y-114709000D02*
X124124888Y-116160000D01*
X124124888Y-118240000D02*
X124124888Y-119691000D01*
X124165888Y-114720000D02*
X124165888Y-116160000D01*
X124165888Y-118240000D02*
X124165888Y-119680000D01*
X124205888Y-114732000D02*
X124205888Y-116160000D01*
X124205888Y-118240000D02*
X124205888Y-119668000D01*
X124245888Y-114745000D02*
X124245888Y-116160000D01*
X124245888Y-118240000D02*
X124245888Y-119655000D01*
X124285888Y-114758000D02*
X124285888Y-116160000D01*
X124285888Y-118240000D02*
X124285888Y-119642000D01*
X124325888Y-114772000D02*
X124325888Y-116160000D01*
X124325888Y-118240000D02*
X124325888Y-119628000D01*
X124365888Y-114786000D02*
X124365888Y-116160000D01*
X124365888Y-118240000D02*
X124365888Y-119614000D01*
X124405888Y-114802000D02*
X124405888Y-116160000D01*
X124405888Y-118240000D02*
X124405888Y-119598000D01*
X124445888Y-114818000D02*
X124445888Y-116160000D01*
X124445888Y-118240000D02*
X124445888Y-119582000D01*
X124485888Y-114835000D02*
X124485888Y-116160000D01*
X124485888Y-118240000D02*
X124485888Y-119565000D01*
X124525888Y-114852000D02*
X124525888Y-116160000D01*
X124525888Y-118240000D02*
X124525888Y-119548000D01*
X124565888Y-114871000D02*
X124565888Y-116160000D01*
X124565888Y-118240000D02*
X124565888Y-119529000D01*
X124605888Y-114890000D02*
X124605888Y-116160000D01*
X124605888Y-118240000D02*
X124605888Y-119510000D01*
X124645888Y-114910000D02*
X124645888Y-116160000D01*
X124645888Y-118240000D02*
X124645888Y-119490000D01*
X124685888Y-114932000D02*
X124685888Y-116160000D01*
X124685888Y-118240000D02*
X124685888Y-119468000D01*
X124725888Y-114953000D02*
X124725888Y-116160000D01*
X124725888Y-118240000D02*
X124725888Y-119447000D01*
X124765888Y-114976000D02*
X124765888Y-116160000D01*
X124765888Y-118240000D02*
X124765888Y-119424000D01*
X124805888Y-115000000D02*
X124805888Y-116160000D01*
X124805888Y-118240000D02*
X124805888Y-119400000D01*
X124845888Y-115025000D02*
X124845888Y-116160000D01*
X124845888Y-118240000D02*
X124845888Y-119375000D01*
X124885888Y-115051000D02*
X124885888Y-116160000D01*
X124885888Y-118240000D02*
X124885888Y-119349000D01*
X124925888Y-115078000D02*
X124925888Y-116160000D01*
X124925888Y-118240000D02*
X124925888Y-119322000D01*
X124965888Y-115105000D02*
X124965888Y-116160000D01*
X124965888Y-118240000D02*
X124965888Y-119295000D01*
X125005888Y-115135000D02*
X125005888Y-116160000D01*
X125005888Y-118240000D02*
X125005888Y-119265000D01*
X125045888Y-115165000D02*
X125045888Y-116160000D01*
X125045888Y-118240000D02*
X125045888Y-119235000D01*
X125085888Y-115196000D02*
X125085888Y-116160000D01*
X125085888Y-118240000D02*
X125085888Y-119204000D01*
X125125888Y-115229000D02*
X125125888Y-116160000D01*
X125125888Y-118240000D02*
X125125888Y-119171000D01*
X125165888Y-115263000D02*
X125165888Y-116160000D01*
X125165888Y-118240000D02*
X125165888Y-119137000D01*
X125205888Y-115299000D02*
X125205888Y-116160000D01*
X125205888Y-118240000D02*
X125205888Y-119101000D01*
X125245888Y-115336000D02*
X125245888Y-116160000D01*
X125245888Y-118240000D02*
X125245888Y-119064000D01*
X125285888Y-115374000D02*
X125285888Y-116160000D01*
X125285888Y-118240000D02*
X125285888Y-119026000D01*
X125325888Y-115415000D02*
X125325888Y-116160000D01*
X125325888Y-118240000D02*
X125325888Y-118985000D01*
X125365888Y-115457000D02*
X125365888Y-116160000D01*
X125365888Y-118240000D02*
X125365888Y-118943000D01*
X125405888Y-115501000D02*
X125405888Y-116160000D01*
X125405888Y-118240000D02*
X125405888Y-118899000D01*
X125445888Y-115547000D02*
X125445888Y-116160000D01*
X125445888Y-118240000D02*
X125445888Y-118853000D01*
X125485888Y-115595000D02*
X125485888Y-116160000D01*
X125485888Y-118240000D02*
X125485888Y-118805000D01*
X125525888Y-115646000D02*
X125525888Y-116160000D01*
X125525888Y-118240000D02*
X125525888Y-118754000D01*
X125565888Y-115700000D02*
X125565888Y-116160000D01*
X125565888Y-118240000D02*
X125565888Y-118700000D01*
X125605888Y-115757000D02*
X125605888Y-116160000D01*
X125605888Y-118240000D02*
X125605888Y-118643000D01*
X125645888Y-115817000D02*
X125645888Y-116160000D01*
X125645888Y-118240000D02*
X125645888Y-118583000D01*
X125685888Y-115881000D02*
X125685888Y-116160000D01*
X125685888Y-118240000D02*
X125685888Y-118519000D01*
X125725888Y-115949000D02*
X125725888Y-116160000D01*
X125725888Y-118240000D02*
X125725888Y-118451000D01*
X125765888Y-116022000D02*
X125765888Y-118378000D01*
X125805888Y-116102000D02*
X125805888Y-118298000D01*
X125845888Y-116189000D02*
X125845888Y-118211000D01*
X125885888Y-116285000D02*
X125885888Y-118115000D01*
X125925888Y-116395000D02*
X125925888Y-118005000D01*
X125965888Y-116523000D02*
X125965888Y-117877000D01*
X126005888Y-116682000D02*
X126005888Y-117718000D01*
X126045888Y-116916000D02*
X126045888Y-117484000D01*
X126064888Y-117200000D02*
G75*
G02*
X120824888Y-117200000I-2620000J0D01*
G01*
X120824888Y-117200000D02*
G75*
G02*
X126064888Y-117200000I2620000J0D01*
G01*
%TO.C,R14*%
X99560000Y-103648000D02*
X93020000Y-103648000D01*
X99560000Y-103318000D02*
X99560000Y-103648000D01*
X99560000Y-101238000D02*
X99560000Y-100908000D01*
X99560000Y-100908000D02*
X93020000Y-100908000D01*
X93020000Y-103648000D02*
X93020000Y-103318000D01*
X93020000Y-100908000D02*
X93020000Y-101238000D01*
%TO.C,C8*%
X120740113Y-110225000D02*
X121240113Y-110225000D01*
X120990113Y-109975000D02*
X120990113Y-110475000D01*
X123544888Y-109120000D02*
X123544888Y-114280000D01*
X123584888Y-109120000D02*
X123584888Y-114280000D01*
X123624888Y-109121000D02*
X123624888Y-114279000D01*
X123664888Y-109122000D02*
X123664888Y-114278000D01*
X123704888Y-109124000D02*
X123704888Y-114276000D01*
X123744888Y-109127000D02*
X123744888Y-114273000D01*
X123784888Y-109131000D02*
X123784888Y-110660000D01*
X123784888Y-112740000D02*
X123784888Y-114269000D01*
X123824888Y-109135000D02*
X123824888Y-110660000D01*
X123824888Y-112740000D02*
X123824888Y-114265000D01*
X123864888Y-109139000D02*
X123864888Y-110660000D01*
X123864888Y-112740000D02*
X123864888Y-114261000D01*
X123904888Y-109144000D02*
X123904888Y-110660000D01*
X123904888Y-112740000D02*
X123904888Y-114256000D01*
X123944888Y-109150000D02*
X123944888Y-110660000D01*
X123944888Y-112740000D02*
X123944888Y-114250000D01*
X123984888Y-109157000D02*
X123984888Y-110660000D01*
X123984888Y-112740000D02*
X123984888Y-114243000D01*
X124024888Y-109164000D02*
X124024888Y-110660000D01*
X124024888Y-112740000D02*
X124024888Y-114236000D01*
X124064888Y-109172000D02*
X124064888Y-110660000D01*
X124064888Y-112740000D02*
X124064888Y-114228000D01*
X124104888Y-109180000D02*
X124104888Y-110660000D01*
X124104888Y-112740000D02*
X124104888Y-114220000D01*
X124144888Y-109189000D02*
X124144888Y-110660000D01*
X124144888Y-112740000D02*
X124144888Y-114211000D01*
X124184888Y-109199000D02*
X124184888Y-110660000D01*
X124184888Y-112740000D02*
X124184888Y-114201000D01*
X124224888Y-109209000D02*
X124224888Y-110660000D01*
X124224888Y-112740000D02*
X124224888Y-114191000D01*
X124265888Y-109220000D02*
X124265888Y-110660000D01*
X124265888Y-112740000D02*
X124265888Y-114180000D01*
X124305888Y-109232000D02*
X124305888Y-110660000D01*
X124305888Y-112740000D02*
X124305888Y-114168000D01*
X124345888Y-109245000D02*
X124345888Y-110660000D01*
X124345888Y-112740000D02*
X124345888Y-114155000D01*
X124385888Y-109258000D02*
X124385888Y-110660000D01*
X124385888Y-112740000D02*
X124385888Y-114142000D01*
X124425888Y-109272000D02*
X124425888Y-110660000D01*
X124425888Y-112740000D02*
X124425888Y-114128000D01*
X124465888Y-109286000D02*
X124465888Y-110660000D01*
X124465888Y-112740000D02*
X124465888Y-114114000D01*
X124505888Y-109302000D02*
X124505888Y-110660000D01*
X124505888Y-112740000D02*
X124505888Y-114098000D01*
X124545888Y-109318000D02*
X124545888Y-110660000D01*
X124545888Y-112740000D02*
X124545888Y-114082000D01*
X124585888Y-109335000D02*
X124585888Y-110660000D01*
X124585888Y-112740000D02*
X124585888Y-114065000D01*
X124625888Y-109352000D02*
X124625888Y-110660000D01*
X124625888Y-112740000D02*
X124625888Y-114048000D01*
X124665888Y-109371000D02*
X124665888Y-110660000D01*
X124665888Y-112740000D02*
X124665888Y-114029000D01*
X124705888Y-109390000D02*
X124705888Y-110660000D01*
X124705888Y-112740000D02*
X124705888Y-114010000D01*
X124745888Y-109410000D02*
X124745888Y-110660000D01*
X124745888Y-112740000D02*
X124745888Y-113990000D01*
X124785888Y-109432000D02*
X124785888Y-110660000D01*
X124785888Y-112740000D02*
X124785888Y-113968000D01*
X124825888Y-109453000D02*
X124825888Y-110660000D01*
X124825888Y-112740000D02*
X124825888Y-113947000D01*
X124865888Y-109476000D02*
X124865888Y-110660000D01*
X124865888Y-112740000D02*
X124865888Y-113924000D01*
X124905888Y-109500000D02*
X124905888Y-110660000D01*
X124905888Y-112740000D02*
X124905888Y-113900000D01*
X124945888Y-109525000D02*
X124945888Y-110660000D01*
X124945888Y-112740000D02*
X124945888Y-113875000D01*
X124985888Y-109551000D02*
X124985888Y-110660000D01*
X124985888Y-112740000D02*
X124985888Y-113849000D01*
X125025888Y-109578000D02*
X125025888Y-110660000D01*
X125025888Y-112740000D02*
X125025888Y-113822000D01*
X125065888Y-109605000D02*
X125065888Y-110660000D01*
X125065888Y-112740000D02*
X125065888Y-113795000D01*
X125105888Y-109635000D02*
X125105888Y-110660000D01*
X125105888Y-112740000D02*
X125105888Y-113765000D01*
X125145888Y-109665000D02*
X125145888Y-110660000D01*
X125145888Y-112740000D02*
X125145888Y-113735000D01*
X125185888Y-109696000D02*
X125185888Y-110660000D01*
X125185888Y-112740000D02*
X125185888Y-113704000D01*
X125225888Y-109729000D02*
X125225888Y-110660000D01*
X125225888Y-112740000D02*
X125225888Y-113671000D01*
X125265888Y-109763000D02*
X125265888Y-110660000D01*
X125265888Y-112740000D02*
X125265888Y-113637000D01*
X125305888Y-109799000D02*
X125305888Y-110660000D01*
X125305888Y-112740000D02*
X125305888Y-113601000D01*
X125345888Y-109836000D02*
X125345888Y-110660000D01*
X125345888Y-112740000D02*
X125345888Y-113564000D01*
X125385888Y-109874000D02*
X125385888Y-110660000D01*
X125385888Y-112740000D02*
X125385888Y-113526000D01*
X125425888Y-109915000D02*
X125425888Y-110660000D01*
X125425888Y-112740000D02*
X125425888Y-113485000D01*
X125465888Y-109957000D02*
X125465888Y-110660000D01*
X125465888Y-112740000D02*
X125465888Y-113443000D01*
X125505888Y-110001000D02*
X125505888Y-110660000D01*
X125505888Y-112740000D02*
X125505888Y-113399000D01*
X125545888Y-110047000D02*
X125545888Y-110660000D01*
X125545888Y-112740000D02*
X125545888Y-113353000D01*
X125585888Y-110095000D02*
X125585888Y-110660000D01*
X125585888Y-112740000D02*
X125585888Y-113305000D01*
X125625888Y-110146000D02*
X125625888Y-110660000D01*
X125625888Y-112740000D02*
X125625888Y-113254000D01*
X125665888Y-110200000D02*
X125665888Y-110660000D01*
X125665888Y-112740000D02*
X125665888Y-113200000D01*
X125705888Y-110257000D02*
X125705888Y-110660000D01*
X125705888Y-112740000D02*
X125705888Y-113143000D01*
X125745888Y-110317000D02*
X125745888Y-110660000D01*
X125745888Y-112740000D02*
X125745888Y-113083000D01*
X125785888Y-110381000D02*
X125785888Y-110660000D01*
X125785888Y-112740000D02*
X125785888Y-113019000D01*
X125825888Y-110449000D02*
X125825888Y-110660000D01*
X125825888Y-112740000D02*
X125825888Y-112951000D01*
X125865888Y-110522000D02*
X125865888Y-112878000D01*
X125905888Y-110602000D02*
X125905888Y-112798000D01*
X125945888Y-110689000D02*
X125945888Y-112711000D01*
X125985888Y-110785000D02*
X125985888Y-112615000D01*
X126025888Y-110895000D02*
X126025888Y-112505000D01*
X126065888Y-111023000D02*
X126065888Y-112377000D01*
X126105888Y-111182000D02*
X126105888Y-112218000D01*
X126145888Y-111416000D02*
X126145888Y-111984000D01*
X126164888Y-111700000D02*
G75*
G02*
X120924888Y-111700000I-2620000J0D01*
G01*
X120924888Y-111700000D02*
G75*
G02*
X126164888Y-111700000I2620000J0D01*
G01*
%TO.C,J4*%
X128710000Y-96710000D02*
X131210000Y-96710000D01*
X131210000Y-96710000D02*
X131210000Y-94210000D01*
X126890000Y-96410000D02*
X130910000Y-96410000D01*
X128600000Y-96410000D02*
X128600000Y-95910000D01*
X129410000Y-96410000D02*
X129410000Y-95410000D01*
X130910000Y-96410000D02*
X130910000Y-88690000D01*
X127390000Y-95910000D02*
X127390000Y-89190000D01*
X128600000Y-95910000D02*
X127390000Y-95910000D01*
X129410000Y-95410000D02*
X130910000Y-95410000D01*
X129410000Y-89690000D02*
X130910000Y-89690000D01*
X127390000Y-89190000D02*
X128600000Y-89190000D01*
X128600000Y-89190000D02*
X128600000Y-88690000D01*
X126890000Y-88690000D02*
X126890000Y-96410000D01*
X129410000Y-88690000D02*
X129410000Y-89690000D01*
X130910000Y-88690000D02*
X126890000Y-88690000D01*
%TO.C,J6*%
X77410000Y-77630000D02*
X77410000Y-78960000D01*
X76080000Y-77630000D02*
X77410000Y-77630000D01*
X74810000Y-77630000D02*
X69670000Y-77630000D01*
X74810000Y-77630000D02*
X74810000Y-80230000D01*
X69670000Y-77630000D02*
X69670000Y-82830000D01*
X77410000Y-80230000D02*
X77410000Y-82830000D01*
X74810000Y-80230000D02*
X77410000Y-80230000D01*
X77410000Y-82830000D02*
X69670000Y-82830000D01*
%TO.C,R1*%
X92730000Y-84370000D02*
X92730000Y-77830000D01*
X93060000Y-84370000D02*
X92730000Y-84370000D01*
X95140000Y-84370000D02*
X95470000Y-84370000D01*
X95470000Y-84370000D02*
X95470000Y-77830000D01*
X92730000Y-77830000D02*
X93060000Y-77830000D01*
X95470000Y-77830000D02*
X95140000Y-77830000D01*
%TO.C,A1*%
X120140000Y-123600000D02*
X120140000Y-80160000D01*
X120140000Y-123600000D02*
X115060000Y-123600000D01*
X120140000Y-80160000D02*
X102100000Y-80160000D01*
X117470000Y-120930000D02*
X120140000Y-120930000D01*
X117470000Y-82830000D02*
X120140000Y-82830000D01*
X117470000Y-82830000D02*
X117470000Y-120930000D01*
X115060000Y-126140000D02*
X107180000Y-126140000D01*
X115060000Y-115720000D02*
X115060000Y-126140000D01*
X107180000Y-126140000D02*
X107180000Y-115720000D01*
X107180000Y-115720000D02*
X115060000Y-115720000D01*
X104770000Y-120930000D02*
X102100000Y-120930000D01*
X104770000Y-85370000D02*
X104770000Y-120930000D01*
X104770000Y-85370000D02*
X104770000Y-82830000D01*
X104770000Y-85370000D02*
X102100000Y-85370000D01*
X104770000Y-82830000D02*
X102100000Y-82830000D01*
X102100000Y-123600000D02*
X107180000Y-123600000D01*
X102100000Y-85370000D02*
X102100000Y-123600000D01*
X102100000Y-80160000D02*
X102100000Y-82830000D01*
%TO.C,R10*%
X71430000Y-97030000D02*
X77970000Y-97030000D01*
X71430000Y-97360000D02*
X71430000Y-97030000D01*
X71430000Y-99440000D02*
X71430000Y-99770000D01*
X71430000Y-99770000D02*
X77970000Y-99770000D01*
X77970000Y-97030000D02*
X77970000Y-97360000D01*
X77970000Y-99770000D02*
X77970000Y-99440000D01*
%TO.C,Q2*%
X74275000Y-122855000D02*
X74275000Y-119005000D01*
X71480214Y-123262774D02*
G75*
G02*
X70225000Y-122005000I1094786J2347774D01*
G01*
X74275000Y-122855000D02*
G75*
G02*
X73697045Y-123237631I-1700000J1940000D01*
G01*
X70225000Y-119855000D02*
G75*
G02*
X71485487Y-118578537I2350000J-1060000D01*
G01*
X73687264Y-118612617D02*
G75*
G02*
X74275000Y-119005000I-1112264J-2302383D01*
G01*
%TO.C,R13*%
X99550000Y-106770000D02*
X93010000Y-106770000D01*
X99550000Y-106440000D02*
X99550000Y-106770000D01*
X99550000Y-104360000D02*
X99550000Y-104030000D01*
X99550000Y-104030000D02*
X93010000Y-104030000D01*
X93010000Y-106770000D02*
X93010000Y-106440000D01*
X93010000Y-104030000D02*
X93010000Y-104360000D01*
%TO.C,C2*%
X121055225Y-82175000D02*
X121555225Y-82175000D01*
X121305225Y-81925000D02*
X121305225Y-82425000D01*
X123860000Y-81070000D02*
X123860000Y-86230000D01*
X123900000Y-81070000D02*
X123900000Y-86230000D01*
X123940000Y-81071000D02*
X123940000Y-86229000D01*
X123980000Y-81072000D02*
X123980000Y-86228000D01*
X124020000Y-81074000D02*
X124020000Y-86226000D01*
X124060000Y-81077000D02*
X124060000Y-86223000D01*
X124100000Y-81081000D02*
X124100000Y-82610000D01*
X124100000Y-84690000D02*
X124100000Y-86219000D01*
X124140000Y-81085000D02*
X124140000Y-82610000D01*
X124140000Y-84690000D02*
X124140000Y-86215000D01*
X124180000Y-81089000D02*
X124180000Y-82610000D01*
X124180000Y-84690000D02*
X124180000Y-86211000D01*
X124220000Y-81094000D02*
X124220000Y-82610000D01*
X124220000Y-84690000D02*
X124220000Y-86206000D01*
X124260000Y-81100000D02*
X124260000Y-82610000D01*
X124260000Y-84690000D02*
X124260000Y-86200000D01*
X124300000Y-81107000D02*
X124300000Y-82610000D01*
X124300000Y-84690000D02*
X124300000Y-86193000D01*
X124340000Y-81114000D02*
X124340000Y-82610000D01*
X124340000Y-84690000D02*
X124340000Y-86186000D01*
X124380000Y-81122000D02*
X124380000Y-82610000D01*
X124380000Y-84690000D02*
X124380000Y-86178000D01*
X124420000Y-81130000D02*
X124420000Y-82610000D01*
X124420000Y-84690000D02*
X124420000Y-86170000D01*
X124460000Y-81139000D02*
X124460000Y-82610000D01*
X124460000Y-84690000D02*
X124460000Y-86161000D01*
X124500000Y-81149000D02*
X124500000Y-82610000D01*
X124500000Y-84690000D02*
X124500000Y-86151000D01*
X124540000Y-81159000D02*
X124540000Y-82610000D01*
X124540000Y-84690000D02*
X124540000Y-86141000D01*
X124581000Y-81170000D02*
X124581000Y-82610000D01*
X124581000Y-84690000D02*
X124581000Y-86130000D01*
X124621000Y-81182000D02*
X124621000Y-82610000D01*
X124621000Y-84690000D02*
X124621000Y-86118000D01*
X124661000Y-81195000D02*
X124661000Y-82610000D01*
X124661000Y-84690000D02*
X124661000Y-86105000D01*
X124701000Y-81208000D02*
X124701000Y-82610000D01*
X124701000Y-84690000D02*
X124701000Y-86092000D01*
X124741000Y-81222000D02*
X124741000Y-82610000D01*
X124741000Y-84690000D02*
X124741000Y-86078000D01*
X124781000Y-81236000D02*
X124781000Y-82610000D01*
X124781000Y-84690000D02*
X124781000Y-86064000D01*
X124821000Y-81252000D02*
X124821000Y-82610000D01*
X124821000Y-84690000D02*
X124821000Y-86048000D01*
X124861000Y-81268000D02*
X124861000Y-82610000D01*
X124861000Y-84690000D02*
X124861000Y-86032000D01*
X124901000Y-81285000D02*
X124901000Y-82610000D01*
X124901000Y-84690000D02*
X124901000Y-86015000D01*
X124941000Y-81302000D02*
X124941000Y-82610000D01*
X124941000Y-84690000D02*
X124941000Y-85998000D01*
X124981000Y-81321000D02*
X124981000Y-82610000D01*
X124981000Y-84690000D02*
X124981000Y-85979000D01*
X125021000Y-81340000D02*
X125021000Y-82610000D01*
X125021000Y-84690000D02*
X125021000Y-85960000D01*
X125061000Y-81360000D02*
X125061000Y-82610000D01*
X125061000Y-84690000D02*
X125061000Y-85940000D01*
X125101000Y-81382000D02*
X125101000Y-82610000D01*
X125101000Y-84690000D02*
X125101000Y-85918000D01*
X125141000Y-81403000D02*
X125141000Y-82610000D01*
X125141000Y-84690000D02*
X125141000Y-85897000D01*
X125181000Y-81426000D02*
X125181000Y-82610000D01*
X125181000Y-84690000D02*
X125181000Y-85874000D01*
X125221000Y-81450000D02*
X125221000Y-82610000D01*
X125221000Y-84690000D02*
X125221000Y-85850000D01*
X125261000Y-81475000D02*
X125261000Y-82610000D01*
X125261000Y-84690000D02*
X125261000Y-85825000D01*
X125301000Y-81501000D02*
X125301000Y-82610000D01*
X125301000Y-84690000D02*
X125301000Y-85799000D01*
X125341000Y-81528000D02*
X125341000Y-82610000D01*
X125341000Y-84690000D02*
X125341000Y-85772000D01*
X125381000Y-81555000D02*
X125381000Y-82610000D01*
X125381000Y-84690000D02*
X125381000Y-85745000D01*
X125421000Y-81585000D02*
X125421000Y-82610000D01*
X125421000Y-84690000D02*
X125421000Y-85715000D01*
X125461000Y-81615000D02*
X125461000Y-82610000D01*
X125461000Y-84690000D02*
X125461000Y-85685000D01*
X125501000Y-81646000D02*
X125501000Y-82610000D01*
X125501000Y-84690000D02*
X125501000Y-85654000D01*
X125541000Y-81679000D02*
X125541000Y-82610000D01*
X125541000Y-84690000D02*
X125541000Y-85621000D01*
X125581000Y-81713000D02*
X125581000Y-82610000D01*
X125581000Y-84690000D02*
X125581000Y-85587000D01*
X125621000Y-81749000D02*
X125621000Y-82610000D01*
X125621000Y-84690000D02*
X125621000Y-85551000D01*
X125661000Y-81786000D02*
X125661000Y-82610000D01*
X125661000Y-84690000D02*
X125661000Y-85514000D01*
X125701000Y-81824000D02*
X125701000Y-82610000D01*
X125701000Y-84690000D02*
X125701000Y-85476000D01*
X125741000Y-81865000D02*
X125741000Y-82610000D01*
X125741000Y-84690000D02*
X125741000Y-85435000D01*
X125781000Y-81907000D02*
X125781000Y-82610000D01*
X125781000Y-84690000D02*
X125781000Y-85393000D01*
X125821000Y-81951000D02*
X125821000Y-82610000D01*
X125821000Y-84690000D02*
X125821000Y-85349000D01*
X125861000Y-81997000D02*
X125861000Y-82610000D01*
X125861000Y-84690000D02*
X125861000Y-85303000D01*
X125901000Y-82045000D02*
X125901000Y-82610000D01*
X125901000Y-84690000D02*
X125901000Y-85255000D01*
X125941000Y-82096000D02*
X125941000Y-82610000D01*
X125941000Y-84690000D02*
X125941000Y-85204000D01*
X125981000Y-82150000D02*
X125981000Y-82610000D01*
X125981000Y-84690000D02*
X125981000Y-85150000D01*
X126021000Y-82207000D02*
X126021000Y-82610000D01*
X126021000Y-84690000D02*
X126021000Y-85093000D01*
X126061000Y-82267000D02*
X126061000Y-82610000D01*
X126061000Y-84690000D02*
X126061000Y-85033000D01*
X126101000Y-82331000D02*
X126101000Y-82610000D01*
X126101000Y-84690000D02*
X126101000Y-84969000D01*
X126141000Y-82399000D02*
X126141000Y-82610000D01*
X126141000Y-84690000D02*
X126141000Y-84901000D01*
X126181000Y-82472000D02*
X126181000Y-84828000D01*
X126221000Y-82552000D02*
X126221000Y-84748000D01*
X126261000Y-82639000D02*
X126261000Y-84661000D01*
X126301000Y-82735000D02*
X126301000Y-84565000D01*
X126341000Y-82845000D02*
X126341000Y-84455000D01*
X126381000Y-82973000D02*
X126381000Y-84327000D01*
X126421000Y-83132000D02*
X126421000Y-84168000D01*
X126461000Y-83366000D02*
X126461000Y-83934000D01*
X126480000Y-83650000D02*
G75*
G02*
X121240000Y-83650000I-2620000J0D01*
G01*
X121240000Y-83650000D02*
G75*
G02*
X126480000Y-83650000I2620000J0D01*
G01*
%TO.C,U3*%
X87640000Y-117405000D02*
X87640000Y-112205000D01*
X87640000Y-112205000D02*
X82340000Y-112205000D01*
X85990000Y-117405000D02*
X87640000Y-117405000D01*
X82340000Y-117405000D02*
X83990000Y-117405000D01*
X82340000Y-112205000D02*
X82340000Y-117405000D01*
X83990000Y-117405000D02*
G75*
G02*
X85990000Y-117405000I1000000J0D01*
G01*
%TO.C,C1*%
X120960337Y-76675000D02*
X121460337Y-76675000D01*
X121210337Y-76425000D02*
X121210337Y-76925000D01*
X123765112Y-75570000D02*
X123765112Y-80730000D01*
X123805112Y-75570000D02*
X123805112Y-80730000D01*
X123845112Y-75571000D02*
X123845112Y-80729000D01*
X123885112Y-75572000D02*
X123885112Y-80728000D01*
X123925112Y-75574000D02*
X123925112Y-80726000D01*
X123965112Y-75577000D02*
X123965112Y-80723000D01*
X124005112Y-75581000D02*
X124005112Y-77110000D01*
X124005112Y-79190000D02*
X124005112Y-80719000D01*
X124045112Y-75585000D02*
X124045112Y-77110000D01*
X124045112Y-79190000D02*
X124045112Y-80715000D01*
X124085112Y-75589000D02*
X124085112Y-77110000D01*
X124085112Y-79190000D02*
X124085112Y-80711000D01*
X124125112Y-75594000D02*
X124125112Y-77110000D01*
X124125112Y-79190000D02*
X124125112Y-80706000D01*
X124165112Y-75600000D02*
X124165112Y-77110000D01*
X124165112Y-79190000D02*
X124165112Y-80700000D01*
X124205112Y-75607000D02*
X124205112Y-77110000D01*
X124205112Y-79190000D02*
X124205112Y-80693000D01*
X124245112Y-75614000D02*
X124245112Y-77110000D01*
X124245112Y-79190000D02*
X124245112Y-80686000D01*
X124285112Y-75622000D02*
X124285112Y-77110000D01*
X124285112Y-79190000D02*
X124285112Y-80678000D01*
X124325112Y-75630000D02*
X124325112Y-77110000D01*
X124325112Y-79190000D02*
X124325112Y-80670000D01*
X124365112Y-75639000D02*
X124365112Y-77110000D01*
X124365112Y-79190000D02*
X124365112Y-80661000D01*
X124405112Y-75649000D02*
X124405112Y-77110000D01*
X124405112Y-79190000D02*
X124405112Y-80651000D01*
X124445112Y-75659000D02*
X124445112Y-77110000D01*
X124445112Y-79190000D02*
X124445112Y-80641000D01*
X124486112Y-75670000D02*
X124486112Y-77110000D01*
X124486112Y-79190000D02*
X124486112Y-80630000D01*
X124526112Y-75682000D02*
X124526112Y-77110000D01*
X124526112Y-79190000D02*
X124526112Y-80618000D01*
X124566112Y-75695000D02*
X124566112Y-77110000D01*
X124566112Y-79190000D02*
X124566112Y-80605000D01*
X124606112Y-75708000D02*
X124606112Y-77110000D01*
X124606112Y-79190000D02*
X124606112Y-80592000D01*
X124646112Y-75722000D02*
X124646112Y-77110000D01*
X124646112Y-79190000D02*
X124646112Y-80578000D01*
X124686112Y-75736000D02*
X124686112Y-77110000D01*
X124686112Y-79190000D02*
X124686112Y-80564000D01*
X124726112Y-75752000D02*
X124726112Y-77110000D01*
X124726112Y-79190000D02*
X124726112Y-80548000D01*
X124766112Y-75768000D02*
X124766112Y-77110000D01*
X124766112Y-79190000D02*
X124766112Y-80532000D01*
X124806112Y-75785000D02*
X124806112Y-77110000D01*
X124806112Y-79190000D02*
X124806112Y-80515000D01*
X124846112Y-75802000D02*
X124846112Y-77110000D01*
X124846112Y-79190000D02*
X124846112Y-80498000D01*
X124886112Y-75821000D02*
X124886112Y-77110000D01*
X124886112Y-79190000D02*
X124886112Y-80479000D01*
X124926112Y-75840000D02*
X124926112Y-77110000D01*
X124926112Y-79190000D02*
X124926112Y-80460000D01*
X124966112Y-75860000D02*
X124966112Y-77110000D01*
X124966112Y-79190000D02*
X124966112Y-80440000D01*
X125006112Y-75882000D02*
X125006112Y-77110000D01*
X125006112Y-79190000D02*
X125006112Y-80418000D01*
X125046112Y-75903000D02*
X125046112Y-77110000D01*
X125046112Y-79190000D02*
X125046112Y-80397000D01*
X125086112Y-75926000D02*
X125086112Y-77110000D01*
X125086112Y-79190000D02*
X125086112Y-80374000D01*
X125126112Y-75950000D02*
X125126112Y-77110000D01*
X125126112Y-79190000D02*
X125126112Y-80350000D01*
X125166112Y-75975000D02*
X125166112Y-77110000D01*
X125166112Y-79190000D02*
X125166112Y-80325000D01*
X125206112Y-76001000D02*
X125206112Y-77110000D01*
X125206112Y-79190000D02*
X125206112Y-80299000D01*
X125246112Y-76028000D02*
X125246112Y-77110000D01*
X125246112Y-79190000D02*
X125246112Y-80272000D01*
X125286112Y-76055000D02*
X125286112Y-77110000D01*
X125286112Y-79190000D02*
X125286112Y-80245000D01*
X125326112Y-76085000D02*
X125326112Y-77110000D01*
X125326112Y-79190000D02*
X125326112Y-80215000D01*
X125366112Y-76115000D02*
X125366112Y-77110000D01*
X125366112Y-79190000D02*
X125366112Y-80185000D01*
X125406112Y-76146000D02*
X125406112Y-77110000D01*
X125406112Y-79190000D02*
X125406112Y-80154000D01*
X125446112Y-76179000D02*
X125446112Y-77110000D01*
X125446112Y-79190000D02*
X125446112Y-80121000D01*
X125486112Y-76213000D02*
X125486112Y-77110000D01*
X125486112Y-79190000D02*
X125486112Y-80087000D01*
X125526112Y-76249000D02*
X125526112Y-77110000D01*
X125526112Y-79190000D02*
X125526112Y-80051000D01*
X125566112Y-76286000D02*
X125566112Y-77110000D01*
X125566112Y-79190000D02*
X125566112Y-80014000D01*
X125606112Y-76324000D02*
X125606112Y-77110000D01*
X125606112Y-79190000D02*
X125606112Y-79976000D01*
X125646112Y-76365000D02*
X125646112Y-77110000D01*
X125646112Y-79190000D02*
X125646112Y-79935000D01*
X125686112Y-76407000D02*
X125686112Y-77110000D01*
X125686112Y-79190000D02*
X125686112Y-79893000D01*
X125726112Y-76451000D02*
X125726112Y-77110000D01*
X125726112Y-79190000D02*
X125726112Y-79849000D01*
X125766112Y-76497000D02*
X125766112Y-77110000D01*
X125766112Y-79190000D02*
X125766112Y-79803000D01*
X125806112Y-76545000D02*
X125806112Y-77110000D01*
X125806112Y-79190000D02*
X125806112Y-79755000D01*
X125846112Y-76596000D02*
X125846112Y-77110000D01*
X125846112Y-79190000D02*
X125846112Y-79704000D01*
X125886112Y-76650000D02*
X125886112Y-77110000D01*
X125886112Y-79190000D02*
X125886112Y-79650000D01*
X125926112Y-76707000D02*
X125926112Y-77110000D01*
X125926112Y-79190000D02*
X125926112Y-79593000D01*
X125966112Y-76767000D02*
X125966112Y-77110000D01*
X125966112Y-79190000D02*
X125966112Y-79533000D01*
X126006112Y-76831000D02*
X126006112Y-77110000D01*
X126006112Y-79190000D02*
X126006112Y-79469000D01*
X126046112Y-76899000D02*
X126046112Y-77110000D01*
X126046112Y-79190000D02*
X126046112Y-79401000D01*
X126086112Y-76972000D02*
X126086112Y-79328000D01*
X126126112Y-77052000D02*
X126126112Y-79248000D01*
X126166112Y-77139000D02*
X126166112Y-79161000D01*
X126206112Y-77235000D02*
X126206112Y-79065000D01*
X126246112Y-77345000D02*
X126246112Y-78955000D01*
X126286112Y-77473000D02*
X126286112Y-78827000D01*
X126326112Y-77632000D02*
X126326112Y-78668000D01*
X126366112Y-77866000D02*
X126366112Y-78434000D01*
X126385112Y-78150000D02*
G75*
G02*
X121145112Y-78150000I-2620000J0D01*
G01*
X121145112Y-78150000D02*
G75*
G02*
X126385112Y-78150000I2620000J0D01*
G01*
%TO.C,Q1*%
X63450000Y-103250000D02*
X63450000Y-107100000D01*
X66244786Y-102842226D02*
G75*
G02*
X67500000Y-104100000I-1094786J-2347774D01*
G01*
X63450000Y-103250000D02*
G75*
G02*
X64027955Y-102867369I1700000J-1940000D01*
G01*
X67500000Y-106250000D02*
G75*
G02*
X66239513Y-107526463I-2350000J1060000D01*
G01*
X64037736Y-107492383D02*
G75*
G02*
X63450000Y-107100000I1112264J2302383D01*
G01*
%TO.C,R12*%
X99560000Y-109770000D02*
X93020000Y-109770000D01*
X99560000Y-109440000D02*
X99560000Y-109770000D01*
X99560000Y-107360000D02*
X99560000Y-107030000D01*
X99560000Y-107030000D02*
X93020000Y-107030000D01*
X93020000Y-109770000D02*
X93020000Y-109440000D01*
X93020000Y-107030000D02*
X93020000Y-107360000D01*
%TO.C,C5*%
X95670000Y-91500000D02*
G75*
G02*
X90430000Y-91500000I-2620000J0D01*
G01*
X90430000Y-91500000D02*
G75*
G02*
X95670000Y-91500000I2620000J0D01*
G01*
X90449000Y-91784000D02*
X90449000Y-91216000D01*
X90489000Y-92018000D02*
X90489000Y-90982000D01*
X90529000Y-92177000D02*
X90529000Y-90823000D01*
X90569000Y-92305000D02*
X90569000Y-90695000D01*
X90609000Y-92415000D02*
X90609000Y-90585000D01*
X90649000Y-92511000D02*
X90649000Y-90489000D01*
X90689000Y-92598000D02*
X90689000Y-90402000D01*
X90729000Y-92678000D02*
X90729000Y-90322000D01*
X90769000Y-90460000D02*
X90769000Y-90249000D01*
X90769000Y-92751000D02*
X90769000Y-92540000D01*
X90809000Y-90460000D02*
X90809000Y-90181000D01*
X90809000Y-92819000D02*
X90809000Y-92540000D01*
X90849000Y-90460000D02*
X90849000Y-90117000D01*
X90849000Y-92883000D02*
X90849000Y-92540000D01*
X90889000Y-90460000D02*
X90889000Y-90057000D01*
X90889000Y-92943000D02*
X90889000Y-92540000D01*
X90929000Y-90460000D02*
X90929000Y-90000000D01*
X90929000Y-93000000D02*
X90929000Y-92540000D01*
X90969000Y-90460000D02*
X90969000Y-89946000D01*
X90969000Y-93054000D02*
X90969000Y-92540000D01*
X91009000Y-90460000D02*
X91009000Y-89895000D01*
X91009000Y-93105000D02*
X91009000Y-92540000D01*
X91049000Y-90460000D02*
X91049000Y-89847000D01*
X91049000Y-93153000D02*
X91049000Y-92540000D01*
X91089000Y-90460000D02*
X91089000Y-89801000D01*
X91089000Y-93199000D02*
X91089000Y-92540000D01*
X91129000Y-90460000D02*
X91129000Y-89757000D01*
X91129000Y-93243000D02*
X91129000Y-92540000D01*
X91169000Y-90460000D02*
X91169000Y-89715000D01*
X91169000Y-93285000D02*
X91169000Y-92540000D01*
X91209000Y-90460000D02*
X91209000Y-89674000D01*
X91209000Y-93326000D02*
X91209000Y-92540000D01*
X91249000Y-90460000D02*
X91249000Y-89636000D01*
X91249000Y-93364000D02*
X91249000Y-92540000D01*
X91289000Y-90460000D02*
X91289000Y-89599000D01*
X91289000Y-93401000D02*
X91289000Y-92540000D01*
X91329000Y-90460000D02*
X91329000Y-89563000D01*
X91329000Y-93437000D02*
X91329000Y-92540000D01*
X91369000Y-90460000D02*
X91369000Y-89529000D01*
X91369000Y-93471000D02*
X91369000Y-92540000D01*
X91409000Y-90460000D02*
X91409000Y-89496000D01*
X91409000Y-93504000D02*
X91409000Y-92540000D01*
X91449000Y-90460000D02*
X91449000Y-89465000D01*
X91449000Y-93535000D02*
X91449000Y-92540000D01*
X91489000Y-90460000D02*
X91489000Y-89435000D01*
X91489000Y-93565000D02*
X91489000Y-92540000D01*
X91529000Y-90460000D02*
X91529000Y-89405000D01*
X91529000Y-93595000D02*
X91529000Y-92540000D01*
X91569000Y-90460000D02*
X91569000Y-89378000D01*
X91569000Y-93622000D02*
X91569000Y-92540000D01*
X91609000Y-90460000D02*
X91609000Y-89351000D01*
X91609000Y-93649000D02*
X91609000Y-92540000D01*
X91649000Y-90460000D02*
X91649000Y-89325000D01*
X91649000Y-93675000D02*
X91649000Y-92540000D01*
X91689000Y-90460000D02*
X91689000Y-89300000D01*
X91689000Y-93700000D02*
X91689000Y-92540000D01*
X91729000Y-90460000D02*
X91729000Y-89276000D01*
X91729000Y-93724000D02*
X91729000Y-92540000D01*
X91769000Y-90460000D02*
X91769000Y-89253000D01*
X91769000Y-93747000D02*
X91769000Y-92540000D01*
X91809000Y-90460000D02*
X91809000Y-89232000D01*
X91809000Y-93768000D02*
X91809000Y-92540000D01*
X91849000Y-90460000D02*
X91849000Y-89210000D01*
X91849000Y-93790000D02*
X91849000Y-92540000D01*
X91889000Y-90460000D02*
X91889000Y-89190000D01*
X91889000Y-93810000D02*
X91889000Y-92540000D01*
X91929000Y-90460000D02*
X91929000Y-89171000D01*
X91929000Y-93829000D02*
X91929000Y-92540000D01*
X91969000Y-90460000D02*
X91969000Y-89152000D01*
X91969000Y-93848000D02*
X91969000Y-92540000D01*
X92009000Y-90460000D02*
X92009000Y-89135000D01*
X92009000Y-93865000D02*
X92009000Y-92540000D01*
X92049000Y-90460000D02*
X92049000Y-89118000D01*
X92049000Y-93882000D02*
X92049000Y-92540000D01*
X92089000Y-90460000D02*
X92089000Y-89102000D01*
X92089000Y-93898000D02*
X92089000Y-92540000D01*
X92129000Y-90460000D02*
X92129000Y-89086000D01*
X92129000Y-93914000D02*
X92129000Y-92540000D01*
X92169000Y-90460000D02*
X92169000Y-89072000D01*
X92169000Y-93928000D02*
X92169000Y-92540000D01*
X92209000Y-90460000D02*
X92209000Y-89058000D01*
X92209000Y-93942000D02*
X92209000Y-92540000D01*
X92249000Y-90460000D02*
X92249000Y-89045000D01*
X92249000Y-93955000D02*
X92249000Y-92540000D01*
X92289000Y-90460000D02*
X92289000Y-89032000D01*
X92289000Y-93968000D02*
X92289000Y-92540000D01*
X92329000Y-90460000D02*
X92329000Y-89020000D01*
X92329000Y-93980000D02*
X92329000Y-92540000D01*
X92370000Y-90460000D02*
X92370000Y-89009000D01*
X92370000Y-93991000D02*
X92370000Y-92540000D01*
X92410000Y-90460000D02*
X92410000Y-88999000D01*
X92410000Y-94001000D02*
X92410000Y-92540000D01*
X92450000Y-90460000D02*
X92450000Y-88989000D01*
X92450000Y-94011000D02*
X92450000Y-92540000D01*
X92490000Y-90460000D02*
X92490000Y-88980000D01*
X92490000Y-94020000D02*
X92490000Y-92540000D01*
X92530000Y-90460000D02*
X92530000Y-88972000D01*
X92530000Y-94028000D02*
X92530000Y-92540000D01*
X92570000Y-90460000D02*
X92570000Y-88964000D01*
X92570000Y-94036000D02*
X92570000Y-92540000D01*
X92610000Y-90460000D02*
X92610000Y-88957000D01*
X92610000Y-94043000D02*
X92610000Y-92540000D01*
X92650000Y-90460000D02*
X92650000Y-88950000D01*
X92650000Y-94050000D02*
X92650000Y-92540000D01*
X92690000Y-90460000D02*
X92690000Y-88944000D01*
X92690000Y-94056000D02*
X92690000Y-92540000D01*
X92730000Y-90460000D02*
X92730000Y-88939000D01*
X92730000Y-94061000D02*
X92730000Y-92540000D01*
X92770000Y-90460000D02*
X92770000Y-88935000D01*
X92770000Y-94065000D02*
X92770000Y-92540000D01*
X92810000Y-90460000D02*
X92810000Y-88931000D01*
X92810000Y-94069000D02*
X92810000Y-92540000D01*
X92850000Y-94073000D02*
X92850000Y-88927000D01*
X92890000Y-94076000D02*
X92890000Y-88924000D01*
X92930000Y-94078000D02*
X92930000Y-88922000D01*
X92970000Y-94079000D02*
X92970000Y-88921000D01*
X93010000Y-94080000D02*
X93010000Y-88920000D01*
X93050000Y-94080000D02*
X93050000Y-88920000D01*
X95604775Y-93225000D02*
X95604775Y-92725000D01*
X95854775Y-92975000D02*
X95354775Y-92975000D01*
%TO.C,J8*%
X57410000Y-85710000D02*
X59910000Y-85710000D01*
X59910000Y-85710000D02*
X59910000Y-83210000D01*
X55590000Y-85410000D02*
X59610000Y-85410000D01*
X57300000Y-85410000D02*
X57300000Y-84910000D01*
X58110000Y-85410000D02*
X58110000Y-84410000D01*
X59610000Y-85410000D02*
X59610000Y-77690000D01*
X56090000Y-84910000D02*
X56090000Y-78190000D01*
X57300000Y-84910000D02*
X56090000Y-84910000D01*
X58110000Y-84410000D02*
X59610000Y-84410000D01*
X58110000Y-78690000D02*
X59610000Y-78690000D01*
X56090000Y-78190000D02*
X57300000Y-78190000D01*
X57300000Y-78190000D02*
X57300000Y-77690000D01*
X55590000Y-77690000D02*
X55590000Y-85410000D01*
X58110000Y-77690000D02*
X58110000Y-78690000D01*
X59610000Y-77690000D02*
X55590000Y-77690000D01*
%TO.C,J5*%
X118190000Y-66590000D02*
X115690000Y-66590000D01*
X115690000Y-66590000D02*
X115690000Y-69090000D01*
X120010000Y-66890000D02*
X115990000Y-66890000D01*
X118300000Y-66890000D02*
X118300000Y-67390000D01*
X117490000Y-66890000D02*
X117490000Y-67890000D01*
X115990000Y-66890000D02*
X115990000Y-77110000D01*
X119510000Y-67390000D02*
X119510000Y-76610000D01*
X118300000Y-67390000D02*
X119510000Y-67390000D01*
X117490000Y-67890000D02*
X115990000Y-67890000D01*
X117490000Y-76110000D02*
X115990000Y-76110000D01*
X119510000Y-76610000D02*
X118300000Y-76610000D01*
X118300000Y-76610000D02*
X118300000Y-77110000D01*
X120010000Y-77110000D02*
X120010000Y-66890000D01*
X117490000Y-77110000D02*
X117490000Y-76110000D01*
X115990000Y-77110000D02*
X120010000Y-77110000D01*
%TO.C,R5*%
X77970000Y-114870000D02*
X71430000Y-114870000D01*
X77970000Y-114540000D02*
X77970000Y-114870000D01*
X77970000Y-112460000D02*
X77970000Y-112130000D01*
X77970000Y-112130000D02*
X71430000Y-112130000D01*
X71430000Y-114870000D02*
X71430000Y-114540000D01*
X71430000Y-112130000D02*
X71430000Y-112460000D01*
%TO.C,C4*%
X101659888Y-92875000D02*
X101159888Y-92875000D01*
X101409888Y-93125000D02*
X101409888Y-92625000D01*
X98855113Y-93980000D02*
X98855113Y-88820000D01*
X98815113Y-93980000D02*
X98815113Y-88820000D01*
X98775113Y-93979000D02*
X98775113Y-88821000D01*
X98735113Y-93978000D02*
X98735113Y-88822000D01*
X98695113Y-93976000D02*
X98695113Y-88824000D01*
X98655113Y-93973000D02*
X98655113Y-88827000D01*
X98615113Y-93969000D02*
X98615113Y-92440000D01*
X98615113Y-90360000D02*
X98615113Y-88831000D01*
X98575113Y-93965000D02*
X98575113Y-92440000D01*
X98575113Y-90360000D02*
X98575113Y-88835000D01*
X98535113Y-93961000D02*
X98535113Y-92440000D01*
X98535113Y-90360000D02*
X98535113Y-88839000D01*
X98495113Y-93956000D02*
X98495113Y-92440000D01*
X98495113Y-90360000D02*
X98495113Y-88844000D01*
X98455113Y-93950000D02*
X98455113Y-92440000D01*
X98455113Y-90360000D02*
X98455113Y-88850000D01*
X98415113Y-93943000D02*
X98415113Y-92440000D01*
X98415113Y-90360000D02*
X98415113Y-88857000D01*
X98375113Y-93936000D02*
X98375113Y-92440000D01*
X98375113Y-90360000D02*
X98375113Y-88864000D01*
X98335113Y-93928000D02*
X98335113Y-92440000D01*
X98335113Y-90360000D02*
X98335113Y-88872000D01*
X98295113Y-93920000D02*
X98295113Y-92440000D01*
X98295113Y-90360000D02*
X98295113Y-88880000D01*
X98255113Y-93911000D02*
X98255113Y-92440000D01*
X98255113Y-90360000D02*
X98255113Y-88889000D01*
X98215113Y-93901000D02*
X98215113Y-92440000D01*
X98215113Y-90360000D02*
X98215113Y-88899000D01*
X98175113Y-93891000D02*
X98175113Y-92440000D01*
X98175113Y-90360000D02*
X98175113Y-88909000D01*
X98134113Y-93880000D02*
X98134113Y-92440000D01*
X98134113Y-90360000D02*
X98134113Y-88920000D01*
X98094113Y-93868000D02*
X98094113Y-92440000D01*
X98094113Y-90360000D02*
X98094113Y-88932000D01*
X98054113Y-93855000D02*
X98054113Y-92440000D01*
X98054113Y-90360000D02*
X98054113Y-88945000D01*
X98014113Y-93842000D02*
X98014113Y-92440000D01*
X98014113Y-90360000D02*
X98014113Y-88958000D01*
X97974113Y-93828000D02*
X97974113Y-92440000D01*
X97974113Y-90360000D02*
X97974113Y-88972000D01*
X97934113Y-93814000D02*
X97934113Y-92440000D01*
X97934113Y-90360000D02*
X97934113Y-88986000D01*
X97894113Y-93798000D02*
X97894113Y-92440000D01*
X97894113Y-90360000D02*
X97894113Y-89002000D01*
X97854113Y-93782000D02*
X97854113Y-92440000D01*
X97854113Y-90360000D02*
X97854113Y-89018000D01*
X97814113Y-93765000D02*
X97814113Y-92440000D01*
X97814113Y-90360000D02*
X97814113Y-89035000D01*
X97774113Y-93748000D02*
X97774113Y-92440000D01*
X97774113Y-90360000D02*
X97774113Y-89052000D01*
X97734113Y-93729000D02*
X97734113Y-92440000D01*
X97734113Y-90360000D02*
X97734113Y-89071000D01*
X97694113Y-93710000D02*
X97694113Y-92440000D01*
X97694113Y-90360000D02*
X97694113Y-89090000D01*
X97654113Y-93690000D02*
X97654113Y-92440000D01*
X97654113Y-90360000D02*
X97654113Y-89110000D01*
X97614113Y-93668000D02*
X97614113Y-92440000D01*
X97614113Y-90360000D02*
X97614113Y-89132000D01*
X97574113Y-93647000D02*
X97574113Y-92440000D01*
X97574113Y-90360000D02*
X97574113Y-89153000D01*
X97534113Y-93624000D02*
X97534113Y-92440000D01*
X97534113Y-90360000D02*
X97534113Y-89176000D01*
X97494113Y-93600000D02*
X97494113Y-92440000D01*
X97494113Y-90360000D02*
X97494113Y-89200000D01*
X97454113Y-93575000D02*
X97454113Y-92440000D01*
X97454113Y-90360000D02*
X97454113Y-89225000D01*
X97414113Y-93549000D02*
X97414113Y-92440000D01*
X97414113Y-90360000D02*
X97414113Y-89251000D01*
X97374113Y-93522000D02*
X97374113Y-92440000D01*
X97374113Y-90360000D02*
X97374113Y-89278000D01*
X97334113Y-93495000D02*
X97334113Y-92440000D01*
X97334113Y-90360000D02*
X97334113Y-89305000D01*
X97294113Y-93465000D02*
X97294113Y-92440000D01*
X97294113Y-90360000D02*
X97294113Y-89335000D01*
X97254113Y-93435000D02*
X97254113Y-92440000D01*
X97254113Y-90360000D02*
X97254113Y-89365000D01*
X97214113Y-93404000D02*
X97214113Y-92440000D01*
X97214113Y-90360000D02*
X97214113Y-89396000D01*
X97174113Y-93371000D02*
X97174113Y-92440000D01*
X97174113Y-90360000D02*
X97174113Y-89429000D01*
X97134113Y-93337000D02*
X97134113Y-92440000D01*
X97134113Y-90360000D02*
X97134113Y-89463000D01*
X97094113Y-93301000D02*
X97094113Y-92440000D01*
X97094113Y-90360000D02*
X97094113Y-89499000D01*
X97054113Y-93264000D02*
X97054113Y-92440000D01*
X97054113Y-90360000D02*
X97054113Y-89536000D01*
X97014113Y-93226000D02*
X97014113Y-92440000D01*
X97014113Y-90360000D02*
X97014113Y-89574000D01*
X96974113Y-93185000D02*
X96974113Y-92440000D01*
X96974113Y-90360000D02*
X96974113Y-89615000D01*
X96934113Y-93143000D02*
X96934113Y-92440000D01*
X96934113Y-90360000D02*
X96934113Y-89657000D01*
X96894113Y-93099000D02*
X96894113Y-92440000D01*
X96894113Y-90360000D02*
X96894113Y-89701000D01*
X96854113Y-93053000D02*
X96854113Y-92440000D01*
X96854113Y-90360000D02*
X96854113Y-89747000D01*
X96814113Y-93005000D02*
X96814113Y-92440000D01*
X96814113Y-90360000D02*
X96814113Y-89795000D01*
X96774113Y-92954000D02*
X96774113Y-92440000D01*
X96774113Y-90360000D02*
X96774113Y-89846000D01*
X96734113Y-92900000D02*
X96734113Y-92440000D01*
X96734113Y-90360000D02*
X96734113Y-89900000D01*
X96694113Y-92843000D02*
X96694113Y-92440000D01*
X96694113Y-90360000D02*
X96694113Y-89957000D01*
X96654113Y-92783000D02*
X96654113Y-92440000D01*
X96654113Y-90360000D02*
X96654113Y-90017000D01*
X96614113Y-92719000D02*
X96614113Y-92440000D01*
X96614113Y-90360000D02*
X96614113Y-90081000D01*
X96574113Y-92651000D02*
X96574113Y-92440000D01*
X96574113Y-90360000D02*
X96574113Y-90149000D01*
X96534113Y-92578000D02*
X96534113Y-90222000D01*
X96494113Y-92498000D02*
X96494113Y-90302000D01*
X96454113Y-92411000D02*
X96454113Y-90389000D01*
X96414113Y-92315000D02*
X96414113Y-90485000D01*
X96374113Y-92205000D02*
X96374113Y-90595000D01*
X96334113Y-92077000D02*
X96334113Y-90723000D01*
X96294113Y-91918000D02*
X96294113Y-90882000D01*
X96254113Y-91684000D02*
X96254113Y-91116000D01*
X101475113Y-91400000D02*
G75*
G02*
X96235113Y-91400000I-2620000J0D01*
G01*
X96235113Y-91400000D02*
G75*
G02*
X101475113Y-91400000I2620000J0D01*
G01*
%TO.C,R7*%
X65330000Y-124730000D02*
X71870000Y-124730000D01*
X65330000Y-125060000D02*
X65330000Y-124730000D01*
X65330000Y-127140000D02*
X65330000Y-127470000D01*
X65330000Y-127470000D02*
X71870000Y-127470000D01*
X71870000Y-124730000D02*
X71870000Y-125060000D01*
X71870000Y-127470000D02*
X71870000Y-127140000D01*
%TO.C,U1*%
X87840000Y-105805000D02*
X87840000Y-100605000D01*
X87840000Y-100605000D02*
X82540000Y-100605000D01*
X86190000Y-105805000D02*
X87840000Y-105805000D01*
X82540000Y-105805000D02*
X84190000Y-105805000D01*
X82540000Y-100605000D02*
X82540000Y-105805000D01*
X84190000Y-105805000D02*
G75*
G02*
X86190000Y-105805000I1000000J0D01*
G01*
%TO.C,C7*%
X95959888Y-98675000D02*
X95459888Y-98675000D01*
X95709888Y-98925000D02*
X95709888Y-98425000D01*
X93155113Y-99780000D02*
X93155113Y-94620000D01*
X93115113Y-99780000D02*
X93115113Y-94620000D01*
X93075113Y-99779000D02*
X93075113Y-94621000D01*
X93035113Y-99778000D02*
X93035113Y-94622000D01*
X92995113Y-99776000D02*
X92995113Y-94624000D01*
X92955113Y-99773000D02*
X92955113Y-94627000D01*
X92915113Y-99769000D02*
X92915113Y-98240000D01*
X92915113Y-96160000D02*
X92915113Y-94631000D01*
X92875113Y-99765000D02*
X92875113Y-98240000D01*
X92875113Y-96160000D02*
X92875113Y-94635000D01*
X92835113Y-99761000D02*
X92835113Y-98240000D01*
X92835113Y-96160000D02*
X92835113Y-94639000D01*
X92795113Y-99756000D02*
X92795113Y-98240000D01*
X92795113Y-96160000D02*
X92795113Y-94644000D01*
X92755113Y-99750000D02*
X92755113Y-98240000D01*
X92755113Y-96160000D02*
X92755113Y-94650000D01*
X92715113Y-99743000D02*
X92715113Y-98240000D01*
X92715113Y-96160000D02*
X92715113Y-94657000D01*
X92675113Y-99736000D02*
X92675113Y-98240000D01*
X92675113Y-96160000D02*
X92675113Y-94664000D01*
X92635113Y-99728000D02*
X92635113Y-98240000D01*
X92635113Y-96160000D02*
X92635113Y-94672000D01*
X92595113Y-99720000D02*
X92595113Y-98240000D01*
X92595113Y-96160000D02*
X92595113Y-94680000D01*
X92555113Y-99711000D02*
X92555113Y-98240000D01*
X92555113Y-96160000D02*
X92555113Y-94689000D01*
X92515113Y-99701000D02*
X92515113Y-98240000D01*
X92515113Y-96160000D02*
X92515113Y-94699000D01*
X92475113Y-99691000D02*
X92475113Y-98240000D01*
X92475113Y-96160000D02*
X92475113Y-94709000D01*
X92434113Y-99680000D02*
X92434113Y-98240000D01*
X92434113Y-96160000D02*
X92434113Y-94720000D01*
X92394113Y-99668000D02*
X92394113Y-98240000D01*
X92394113Y-96160000D02*
X92394113Y-94732000D01*
X92354113Y-99655000D02*
X92354113Y-98240000D01*
X92354113Y-96160000D02*
X92354113Y-94745000D01*
X92314113Y-99642000D02*
X92314113Y-98240000D01*
X92314113Y-96160000D02*
X92314113Y-94758000D01*
X92274113Y-99628000D02*
X92274113Y-98240000D01*
X92274113Y-96160000D02*
X92274113Y-94772000D01*
X92234113Y-99614000D02*
X92234113Y-98240000D01*
X92234113Y-96160000D02*
X92234113Y-94786000D01*
X92194113Y-99598000D02*
X92194113Y-98240000D01*
X92194113Y-96160000D02*
X92194113Y-94802000D01*
X92154113Y-99582000D02*
X92154113Y-98240000D01*
X92154113Y-96160000D02*
X92154113Y-94818000D01*
X92114113Y-99565000D02*
X92114113Y-98240000D01*
X92114113Y-96160000D02*
X92114113Y-94835000D01*
X92074113Y-99548000D02*
X92074113Y-98240000D01*
X92074113Y-96160000D02*
X92074113Y-94852000D01*
X92034113Y-99529000D02*
X92034113Y-98240000D01*
X92034113Y-96160000D02*
X92034113Y-94871000D01*
X91994113Y-99510000D02*
X91994113Y-98240000D01*
X91994113Y-96160000D02*
X91994113Y-94890000D01*
X91954113Y-99490000D02*
X91954113Y-98240000D01*
X91954113Y-96160000D02*
X91954113Y-94910000D01*
X91914113Y-99468000D02*
X91914113Y-98240000D01*
X91914113Y-96160000D02*
X91914113Y-94932000D01*
X91874113Y-99447000D02*
X91874113Y-98240000D01*
X91874113Y-96160000D02*
X91874113Y-94953000D01*
X91834113Y-99424000D02*
X91834113Y-98240000D01*
X91834113Y-96160000D02*
X91834113Y-94976000D01*
X91794113Y-99400000D02*
X91794113Y-98240000D01*
X91794113Y-96160000D02*
X91794113Y-95000000D01*
X91754113Y-99375000D02*
X91754113Y-98240000D01*
X91754113Y-96160000D02*
X91754113Y-95025000D01*
X91714113Y-99349000D02*
X91714113Y-98240000D01*
X91714113Y-96160000D02*
X91714113Y-95051000D01*
X91674113Y-99322000D02*
X91674113Y-98240000D01*
X91674113Y-96160000D02*
X91674113Y-95078000D01*
X91634113Y-99295000D02*
X91634113Y-98240000D01*
X91634113Y-96160000D02*
X91634113Y-95105000D01*
X91594113Y-99265000D02*
X91594113Y-98240000D01*
X91594113Y-96160000D02*
X91594113Y-95135000D01*
X91554113Y-99235000D02*
X91554113Y-98240000D01*
X91554113Y-96160000D02*
X91554113Y-95165000D01*
X91514113Y-99204000D02*
X91514113Y-98240000D01*
X91514113Y-96160000D02*
X91514113Y-95196000D01*
X91474113Y-99171000D02*
X91474113Y-98240000D01*
X91474113Y-96160000D02*
X91474113Y-95229000D01*
X91434113Y-99137000D02*
X91434113Y-98240000D01*
X91434113Y-96160000D02*
X91434113Y-95263000D01*
X91394113Y-99101000D02*
X91394113Y-98240000D01*
X91394113Y-96160000D02*
X91394113Y-95299000D01*
X91354113Y-99064000D02*
X91354113Y-98240000D01*
X91354113Y-96160000D02*
X91354113Y-95336000D01*
X91314113Y-99026000D02*
X91314113Y-98240000D01*
X91314113Y-96160000D02*
X91314113Y-95374000D01*
X91274113Y-98985000D02*
X91274113Y-98240000D01*
X91274113Y-96160000D02*
X91274113Y-95415000D01*
X91234113Y-98943000D02*
X91234113Y-98240000D01*
X91234113Y-96160000D02*
X91234113Y-95457000D01*
X91194113Y-98899000D02*
X91194113Y-98240000D01*
X91194113Y-96160000D02*
X91194113Y-95501000D01*
X91154113Y-98853000D02*
X91154113Y-98240000D01*
X91154113Y-96160000D02*
X91154113Y-95547000D01*
X91114113Y-98805000D02*
X91114113Y-98240000D01*
X91114113Y-96160000D02*
X91114113Y-95595000D01*
X91074113Y-98754000D02*
X91074113Y-98240000D01*
X91074113Y-96160000D02*
X91074113Y-95646000D01*
X91034113Y-98700000D02*
X91034113Y-98240000D01*
X91034113Y-96160000D02*
X91034113Y-95700000D01*
X90994113Y-98643000D02*
X90994113Y-98240000D01*
X90994113Y-96160000D02*
X90994113Y-95757000D01*
X90954113Y-98583000D02*
X90954113Y-98240000D01*
X90954113Y-96160000D02*
X90954113Y-95817000D01*
X90914113Y-98519000D02*
X90914113Y-98240000D01*
X90914113Y-96160000D02*
X90914113Y-95881000D01*
X90874113Y-98451000D02*
X90874113Y-98240000D01*
X90874113Y-96160000D02*
X90874113Y-95949000D01*
X90834113Y-98378000D02*
X90834113Y-96022000D01*
X90794113Y-98298000D02*
X90794113Y-96102000D01*
X90754113Y-98211000D02*
X90754113Y-96189000D01*
X90714113Y-98115000D02*
X90714113Y-96285000D01*
X90674113Y-98005000D02*
X90674113Y-96395000D01*
X90634113Y-97877000D02*
X90634113Y-96523000D01*
X90594113Y-97718000D02*
X90594113Y-96682000D01*
X90554113Y-97484000D02*
X90554113Y-96916000D01*
X95775113Y-97200000D02*
G75*
G02*
X90535113Y-97200000I-2620000J0D01*
G01*
X90535113Y-97200000D02*
G75*
G02*
X95775113Y-97200000I2620000J0D01*
G01*
%TO.C,R9*%
X58030000Y-98730000D02*
X64570000Y-98730000D01*
X58030000Y-99060000D02*
X58030000Y-98730000D01*
X58030000Y-101140000D02*
X58030000Y-101470000D01*
X58030000Y-101470000D02*
X64570000Y-101470000D01*
X64570000Y-98730000D02*
X64570000Y-99060000D01*
X64570000Y-101470000D02*
X64570000Y-101140000D01*
%TO.C,J1*%
X128810000Y-120310000D02*
X131310000Y-120310000D01*
X131310000Y-120310000D02*
X131310000Y-117810000D01*
X126990000Y-120010000D02*
X131010000Y-120010000D01*
X128700000Y-120010000D02*
X128700000Y-119510000D01*
X129510000Y-120010000D02*
X129510000Y-119010000D01*
X131010000Y-120010000D02*
X131010000Y-109790000D01*
X127490000Y-119510000D02*
X127490000Y-110290000D01*
X128700000Y-119510000D02*
X127490000Y-119510000D01*
X129510000Y-119010000D02*
X131010000Y-119010000D01*
X129510000Y-110790000D02*
X131010000Y-110790000D01*
X127490000Y-110290000D02*
X128700000Y-110290000D01*
X128700000Y-110290000D02*
X128700000Y-109790000D01*
X126990000Y-109790000D02*
X126990000Y-120010000D01*
X129510000Y-109790000D02*
X129510000Y-110790000D01*
X131010000Y-109790000D02*
X126990000Y-109790000D01*
%TO.C,R8*%
X54930000Y-109330000D02*
X61470000Y-109330000D01*
X54930000Y-109660000D02*
X54930000Y-109330000D01*
X54930000Y-111740000D02*
X54930000Y-112070000D01*
X54930000Y-112070000D02*
X61470000Y-112070000D01*
X61470000Y-109330000D02*
X61470000Y-109660000D01*
X61470000Y-112070000D02*
X61470000Y-111740000D01*
%TO.C,J3*%
X98590000Y-77190000D02*
X96090000Y-77190000D01*
X96090000Y-77190000D02*
X96090000Y-79690000D01*
X100410000Y-77490000D02*
X96390000Y-77490000D01*
X98700000Y-77490000D02*
X98700000Y-77990000D01*
X97890000Y-77490000D02*
X97890000Y-78490000D01*
X96390000Y-77490000D02*
X96390000Y-87710000D01*
X99910000Y-77990000D02*
X99910000Y-87210000D01*
X98700000Y-77990000D02*
X99910000Y-77990000D01*
X97890000Y-78490000D02*
X96390000Y-78490000D01*
X97890000Y-86710000D02*
X96390000Y-86710000D01*
X99910000Y-87210000D02*
X98700000Y-87210000D01*
X98700000Y-87210000D02*
X98700000Y-87710000D01*
X100410000Y-87710000D02*
X100410000Y-77490000D01*
X97890000Y-87710000D02*
X97890000Y-86710000D01*
X96390000Y-87710000D02*
X100410000Y-87710000D01*
%TO.C,R11*%
X99560000Y-112870000D02*
X93020000Y-112870000D01*
X99560000Y-112540000D02*
X99560000Y-112870000D01*
X99560000Y-110460000D02*
X99560000Y-110130000D01*
X99560000Y-110130000D02*
X93020000Y-110130000D01*
X93020000Y-112870000D02*
X93020000Y-112540000D01*
X93020000Y-110130000D02*
X93020000Y-110460000D01*
%TO.C,C6*%
X101759888Y-98475000D02*
X101259888Y-98475000D01*
X101509888Y-98725000D02*
X101509888Y-98225000D01*
X98955113Y-99580000D02*
X98955113Y-94420000D01*
X98915113Y-99580000D02*
X98915113Y-94420000D01*
X98875113Y-99579000D02*
X98875113Y-94421000D01*
X98835113Y-99578000D02*
X98835113Y-94422000D01*
X98795113Y-99576000D02*
X98795113Y-94424000D01*
X98755113Y-99573000D02*
X98755113Y-94427000D01*
X98715113Y-99569000D02*
X98715113Y-98040000D01*
X98715113Y-95960000D02*
X98715113Y-94431000D01*
X98675113Y-99565000D02*
X98675113Y-98040000D01*
X98675113Y-95960000D02*
X98675113Y-94435000D01*
X98635113Y-99561000D02*
X98635113Y-98040000D01*
X98635113Y-95960000D02*
X98635113Y-94439000D01*
X98595113Y-99556000D02*
X98595113Y-98040000D01*
X98595113Y-95960000D02*
X98595113Y-94444000D01*
X98555113Y-99550000D02*
X98555113Y-98040000D01*
X98555113Y-95960000D02*
X98555113Y-94450000D01*
X98515113Y-99543000D02*
X98515113Y-98040000D01*
X98515113Y-95960000D02*
X98515113Y-94457000D01*
X98475113Y-99536000D02*
X98475113Y-98040000D01*
X98475113Y-95960000D02*
X98475113Y-94464000D01*
X98435113Y-99528000D02*
X98435113Y-98040000D01*
X98435113Y-95960000D02*
X98435113Y-94472000D01*
X98395113Y-99520000D02*
X98395113Y-98040000D01*
X98395113Y-95960000D02*
X98395113Y-94480000D01*
X98355113Y-99511000D02*
X98355113Y-98040000D01*
X98355113Y-95960000D02*
X98355113Y-94489000D01*
X98315113Y-99501000D02*
X98315113Y-98040000D01*
X98315113Y-95960000D02*
X98315113Y-94499000D01*
X98275113Y-99491000D02*
X98275113Y-98040000D01*
X98275113Y-95960000D02*
X98275113Y-94509000D01*
X98234113Y-99480000D02*
X98234113Y-98040000D01*
X98234113Y-95960000D02*
X98234113Y-94520000D01*
X98194113Y-99468000D02*
X98194113Y-98040000D01*
X98194113Y-95960000D02*
X98194113Y-94532000D01*
X98154113Y-99455000D02*
X98154113Y-98040000D01*
X98154113Y-95960000D02*
X98154113Y-94545000D01*
X98114113Y-99442000D02*
X98114113Y-98040000D01*
X98114113Y-95960000D02*
X98114113Y-94558000D01*
X98074113Y-99428000D02*
X98074113Y-98040000D01*
X98074113Y-95960000D02*
X98074113Y-94572000D01*
X98034113Y-99414000D02*
X98034113Y-98040000D01*
X98034113Y-95960000D02*
X98034113Y-94586000D01*
X97994113Y-99398000D02*
X97994113Y-98040000D01*
X97994113Y-95960000D02*
X97994113Y-94602000D01*
X97954113Y-99382000D02*
X97954113Y-98040000D01*
X97954113Y-95960000D02*
X97954113Y-94618000D01*
X97914113Y-99365000D02*
X97914113Y-98040000D01*
X97914113Y-95960000D02*
X97914113Y-94635000D01*
X97874113Y-99348000D02*
X97874113Y-98040000D01*
X97874113Y-95960000D02*
X97874113Y-94652000D01*
X97834113Y-99329000D02*
X97834113Y-98040000D01*
X97834113Y-95960000D02*
X97834113Y-94671000D01*
X97794113Y-99310000D02*
X97794113Y-98040000D01*
X97794113Y-95960000D02*
X97794113Y-94690000D01*
X97754113Y-99290000D02*
X97754113Y-98040000D01*
X97754113Y-95960000D02*
X97754113Y-94710000D01*
X97714113Y-99268000D02*
X97714113Y-98040000D01*
X97714113Y-95960000D02*
X97714113Y-94732000D01*
X97674113Y-99247000D02*
X97674113Y-98040000D01*
X97674113Y-95960000D02*
X97674113Y-94753000D01*
X97634113Y-99224000D02*
X97634113Y-98040000D01*
X97634113Y-95960000D02*
X97634113Y-94776000D01*
X97594113Y-99200000D02*
X97594113Y-98040000D01*
X97594113Y-95960000D02*
X97594113Y-94800000D01*
X97554113Y-99175000D02*
X97554113Y-98040000D01*
X97554113Y-95960000D02*
X97554113Y-94825000D01*
X97514113Y-99149000D02*
X97514113Y-98040000D01*
X97514113Y-95960000D02*
X97514113Y-94851000D01*
X97474113Y-99122000D02*
X97474113Y-98040000D01*
X97474113Y-95960000D02*
X97474113Y-94878000D01*
X97434113Y-99095000D02*
X97434113Y-98040000D01*
X97434113Y-95960000D02*
X97434113Y-94905000D01*
X97394113Y-99065000D02*
X97394113Y-98040000D01*
X97394113Y-95960000D02*
X97394113Y-94935000D01*
X97354113Y-99035000D02*
X97354113Y-98040000D01*
X97354113Y-95960000D02*
X97354113Y-94965000D01*
X97314113Y-99004000D02*
X97314113Y-98040000D01*
X97314113Y-95960000D02*
X97314113Y-94996000D01*
X97274113Y-98971000D02*
X97274113Y-98040000D01*
X97274113Y-95960000D02*
X97274113Y-95029000D01*
X97234113Y-98937000D02*
X97234113Y-98040000D01*
X97234113Y-95960000D02*
X97234113Y-95063000D01*
X97194113Y-98901000D02*
X97194113Y-98040000D01*
X97194113Y-95960000D02*
X97194113Y-95099000D01*
X97154113Y-98864000D02*
X97154113Y-98040000D01*
X97154113Y-95960000D02*
X97154113Y-95136000D01*
X97114113Y-98826000D02*
X97114113Y-98040000D01*
X97114113Y-95960000D02*
X97114113Y-95174000D01*
X97074113Y-98785000D02*
X97074113Y-98040000D01*
X97074113Y-95960000D02*
X97074113Y-95215000D01*
X97034113Y-98743000D02*
X97034113Y-98040000D01*
X97034113Y-95960000D02*
X97034113Y-95257000D01*
X96994113Y-98699000D02*
X96994113Y-98040000D01*
X96994113Y-95960000D02*
X96994113Y-95301000D01*
X96954113Y-98653000D02*
X96954113Y-98040000D01*
X96954113Y-95960000D02*
X96954113Y-95347000D01*
X96914113Y-98605000D02*
X96914113Y-98040000D01*
X96914113Y-95960000D02*
X96914113Y-95395000D01*
X96874113Y-98554000D02*
X96874113Y-98040000D01*
X96874113Y-95960000D02*
X96874113Y-95446000D01*
X96834113Y-98500000D02*
X96834113Y-98040000D01*
X96834113Y-95960000D02*
X96834113Y-95500000D01*
X96794113Y-98443000D02*
X96794113Y-98040000D01*
X96794113Y-95960000D02*
X96794113Y-95557000D01*
X96754113Y-98383000D02*
X96754113Y-98040000D01*
X96754113Y-95960000D02*
X96754113Y-95617000D01*
X96714113Y-98319000D02*
X96714113Y-98040000D01*
X96714113Y-95960000D02*
X96714113Y-95681000D01*
X96674113Y-98251000D02*
X96674113Y-98040000D01*
X96674113Y-95960000D02*
X96674113Y-95749000D01*
X96634113Y-98178000D02*
X96634113Y-95822000D01*
X96594113Y-98098000D02*
X96594113Y-95902000D01*
X96554113Y-98011000D02*
X96554113Y-95989000D01*
X96514113Y-97915000D02*
X96514113Y-96085000D01*
X96474113Y-97805000D02*
X96474113Y-96195000D01*
X96434113Y-97677000D02*
X96434113Y-96323000D01*
X96394113Y-97518000D02*
X96394113Y-96482000D01*
X96354113Y-97284000D02*
X96354113Y-96716000D01*
X101575113Y-97000000D02*
G75*
G02*
X96335113Y-97000000I-2620000J0D01*
G01*
X96335113Y-97000000D02*
G75*
G02*
X101575113Y-97000000I2620000J0D01*
G01*
%TO.C,U4*%
X93040000Y-124205000D02*
X93040000Y-119005000D01*
X93040000Y-119005000D02*
X87740000Y-119005000D01*
X91390000Y-124205000D02*
X93040000Y-124205000D01*
X87740000Y-124205000D02*
X89390000Y-124205000D01*
X87740000Y-119005000D02*
X87740000Y-124205000D01*
X89390000Y-124205000D02*
G75*
G02*
X91390000Y-124205000I1000000J0D01*
G01*
%TO.C,Q4*%
X63950000Y-111460000D02*
X63950000Y-115310000D01*
X66744786Y-111052226D02*
G75*
G02*
X68000000Y-112310000I-1094786J-2347774D01*
G01*
X63950000Y-111460000D02*
G75*
G02*
X64527955Y-111077369I1700000J-1940000D01*
G01*
X68000000Y-114460000D02*
G75*
G02*
X66739513Y-115736463I-2350000J1060000D01*
G01*
X64537736Y-115702383D02*
G75*
G02*
X63950000Y-115310000I1112264J2302383D01*
G01*
%TO.C,U6*%
X61330000Y-85780000D02*
X65971000Y-85780000D01*
X61330000Y-85780000D02*
X61330000Y-75540000D01*
X62840000Y-85780000D02*
X62840000Y-75540000D01*
X65971000Y-85780000D02*
X65971000Y-75540000D01*
X61330000Y-82510000D02*
X62840000Y-82510000D01*
X61330000Y-78809000D02*
X62840000Y-78809000D01*
X61330000Y-75540000D02*
X65971000Y-75540000D01*
%TO.C,R2*%
X81730000Y-95580000D02*
X81730000Y-89040000D01*
X82060000Y-95580000D02*
X81730000Y-95580000D01*
X84140000Y-95580000D02*
X84470000Y-95580000D01*
X84470000Y-95580000D02*
X84470000Y-89040000D01*
X81730000Y-89040000D02*
X82060000Y-89040000D01*
X84470000Y-89040000D02*
X84140000Y-89040000D01*
%TO.C,J7*%
X114310000Y-69490000D02*
X114310000Y-66990000D01*
X114310000Y-66990000D02*
X111810000Y-66990000D01*
X114010000Y-71310000D02*
X114010000Y-67290000D01*
X114010000Y-69600000D02*
X113510000Y-69600000D01*
X114010000Y-68790000D02*
X113010000Y-68790000D01*
X114010000Y-67290000D02*
X106290000Y-67290000D01*
X113510000Y-70810000D02*
X106790000Y-70810000D01*
X113510000Y-69600000D02*
X113510000Y-70810000D01*
X113010000Y-68790000D02*
X113010000Y-67290000D01*
X107290000Y-68790000D02*
X107290000Y-67290000D01*
X106790000Y-70810000D02*
X106790000Y-69600000D01*
X106790000Y-69600000D02*
X106290000Y-69600000D01*
X106290000Y-71310000D02*
X114010000Y-71310000D01*
X106290000Y-68790000D02*
X107290000Y-68790000D01*
X106290000Y-67290000D02*
X106290000Y-71310000D01*
%TO.C,C3*%
X120955225Y-70375000D02*
X121455225Y-70375000D01*
X121205225Y-70125000D02*
X121205225Y-70625000D01*
X123760000Y-69270000D02*
X123760000Y-74430000D01*
X123800000Y-69270000D02*
X123800000Y-74430000D01*
X123840000Y-69271000D02*
X123840000Y-74429000D01*
X123880000Y-69272000D02*
X123880000Y-74428000D01*
X123920000Y-69274000D02*
X123920000Y-74426000D01*
X123960000Y-69277000D02*
X123960000Y-74423000D01*
X124000000Y-69281000D02*
X124000000Y-70810000D01*
X124000000Y-72890000D02*
X124000000Y-74419000D01*
X124040000Y-69285000D02*
X124040000Y-70810000D01*
X124040000Y-72890000D02*
X124040000Y-74415000D01*
X124080000Y-69289000D02*
X124080000Y-70810000D01*
X124080000Y-72890000D02*
X124080000Y-74411000D01*
X124120000Y-69294000D02*
X124120000Y-70810000D01*
X124120000Y-72890000D02*
X124120000Y-74406000D01*
X124160000Y-69300000D02*
X124160000Y-70810000D01*
X124160000Y-72890000D02*
X124160000Y-74400000D01*
X124200000Y-69307000D02*
X124200000Y-70810000D01*
X124200000Y-72890000D02*
X124200000Y-74393000D01*
X124240000Y-69314000D02*
X124240000Y-70810000D01*
X124240000Y-72890000D02*
X124240000Y-74386000D01*
X124280000Y-69322000D02*
X124280000Y-70810000D01*
X124280000Y-72890000D02*
X124280000Y-74378000D01*
X124320000Y-69330000D02*
X124320000Y-70810000D01*
X124320000Y-72890000D02*
X124320000Y-74370000D01*
X124360000Y-69339000D02*
X124360000Y-70810000D01*
X124360000Y-72890000D02*
X124360000Y-74361000D01*
X124400000Y-69349000D02*
X124400000Y-70810000D01*
X124400000Y-72890000D02*
X124400000Y-74351000D01*
X124440000Y-69359000D02*
X124440000Y-70810000D01*
X124440000Y-72890000D02*
X124440000Y-74341000D01*
X124481000Y-69370000D02*
X124481000Y-70810000D01*
X124481000Y-72890000D02*
X124481000Y-74330000D01*
X124521000Y-69382000D02*
X124521000Y-70810000D01*
X124521000Y-72890000D02*
X124521000Y-74318000D01*
X124561000Y-69395000D02*
X124561000Y-70810000D01*
X124561000Y-72890000D02*
X124561000Y-74305000D01*
X124601000Y-69408000D02*
X124601000Y-70810000D01*
X124601000Y-72890000D02*
X124601000Y-74292000D01*
X124641000Y-69422000D02*
X124641000Y-70810000D01*
X124641000Y-72890000D02*
X124641000Y-74278000D01*
X124681000Y-69436000D02*
X124681000Y-70810000D01*
X124681000Y-72890000D02*
X124681000Y-74264000D01*
X124721000Y-69452000D02*
X124721000Y-70810000D01*
X124721000Y-72890000D02*
X124721000Y-74248000D01*
X124761000Y-69468000D02*
X124761000Y-70810000D01*
X124761000Y-72890000D02*
X124761000Y-74232000D01*
X124801000Y-69485000D02*
X124801000Y-70810000D01*
X124801000Y-72890000D02*
X124801000Y-74215000D01*
X124841000Y-69502000D02*
X124841000Y-70810000D01*
X124841000Y-72890000D02*
X124841000Y-74198000D01*
X124881000Y-69521000D02*
X124881000Y-70810000D01*
X124881000Y-72890000D02*
X124881000Y-74179000D01*
X124921000Y-69540000D02*
X124921000Y-70810000D01*
X124921000Y-72890000D02*
X124921000Y-74160000D01*
X124961000Y-69560000D02*
X124961000Y-70810000D01*
X124961000Y-72890000D02*
X124961000Y-74140000D01*
X125001000Y-69582000D02*
X125001000Y-70810000D01*
X125001000Y-72890000D02*
X125001000Y-74118000D01*
X125041000Y-69603000D02*
X125041000Y-70810000D01*
X125041000Y-72890000D02*
X125041000Y-74097000D01*
X125081000Y-69626000D02*
X125081000Y-70810000D01*
X125081000Y-72890000D02*
X125081000Y-74074000D01*
X125121000Y-69650000D02*
X125121000Y-70810000D01*
X125121000Y-72890000D02*
X125121000Y-74050000D01*
X125161000Y-69675000D02*
X125161000Y-70810000D01*
X125161000Y-72890000D02*
X125161000Y-74025000D01*
X125201000Y-69701000D02*
X125201000Y-70810000D01*
X125201000Y-72890000D02*
X125201000Y-73999000D01*
X125241000Y-69728000D02*
X125241000Y-70810000D01*
X125241000Y-72890000D02*
X125241000Y-73972000D01*
X125281000Y-69755000D02*
X125281000Y-70810000D01*
X125281000Y-72890000D02*
X125281000Y-73945000D01*
X125321000Y-69785000D02*
X125321000Y-70810000D01*
X125321000Y-72890000D02*
X125321000Y-73915000D01*
X125361000Y-69815000D02*
X125361000Y-70810000D01*
X125361000Y-72890000D02*
X125361000Y-73885000D01*
X125401000Y-69846000D02*
X125401000Y-70810000D01*
X125401000Y-72890000D02*
X125401000Y-73854000D01*
X125441000Y-69879000D02*
X125441000Y-70810000D01*
X125441000Y-72890000D02*
X125441000Y-73821000D01*
X125481000Y-69913000D02*
X125481000Y-70810000D01*
X125481000Y-72890000D02*
X125481000Y-73787000D01*
X125521000Y-69949000D02*
X125521000Y-70810000D01*
X125521000Y-72890000D02*
X125521000Y-73751000D01*
X125561000Y-69986000D02*
X125561000Y-70810000D01*
X125561000Y-72890000D02*
X125561000Y-73714000D01*
X125601000Y-70024000D02*
X125601000Y-70810000D01*
X125601000Y-72890000D02*
X125601000Y-73676000D01*
X125641000Y-70065000D02*
X125641000Y-70810000D01*
X125641000Y-72890000D02*
X125641000Y-73635000D01*
X125681000Y-70107000D02*
X125681000Y-70810000D01*
X125681000Y-72890000D02*
X125681000Y-73593000D01*
X125721000Y-70151000D02*
X125721000Y-70810000D01*
X125721000Y-72890000D02*
X125721000Y-73549000D01*
X125761000Y-70197000D02*
X125761000Y-70810000D01*
X125761000Y-72890000D02*
X125761000Y-73503000D01*
X125801000Y-70245000D02*
X125801000Y-70810000D01*
X125801000Y-72890000D02*
X125801000Y-73455000D01*
X125841000Y-70296000D02*
X125841000Y-70810000D01*
X125841000Y-72890000D02*
X125841000Y-73404000D01*
X125881000Y-70350000D02*
X125881000Y-70810000D01*
X125881000Y-72890000D02*
X125881000Y-73350000D01*
X125921000Y-70407000D02*
X125921000Y-70810000D01*
X125921000Y-72890000D02*
X125921000Y-73293000D01*
X125961000Y-70467000D02*
X125961000Y-70810000D01*
X125961000Y-72890000D02*
X125961000Y-73233000D01*
X126001000Y-70531000D02*
X126001000Y-70810000D01*
X126001000Y-72890000D02*
X126001000Y-73169000D01*
X126041000Y-70599000D02*
X126041000Y-70810000D01*
X126041000Y-72890000D02*
X126041000Y-73101000D01*
X126081000Y-70672000D02*
X126081000Y-73028000D01*
X126121000Y-70752000D02*
X126121000Y-72948000D01*
X126161000Y-70839000D02*
X126161000Y-72861000D01*
X126201000Y-70935000D02*
X126201000Y-72765000D01*
X126241000Y-71045000D02*
X126241000Y-72655000D01*
X126281000Y-71173000D02*
X126281000Y-72527000D01*
X126321000Y-71332000D02*
X126321000Y-72368000D01*
X126361000Y-71566000D02*
X126361000Y-72134000D01*
X126380000Y-71850000D02*
G75*
G02*
X121140000Y-71850000I-2620000J0D01*
G01*
X121140000Y-71850000D02*
G75*
G02*
X126380000Y-71850000I2620000J0D01*
G01*
%TO.C,U2*%
X87540000Y-111605000D02*
X87540000Y-106405000D01*
X87540000Y-106405000D02*
X82240000Y-106405000D01*
X85890000Y-111605000D02*
X87540000Y-111605000D01*
X82240000Y-111605000D02*
X83890000Y-111605000D01*
X82240000Y-106405000D02*
X82240000Y-111605000D01*
X83890000Y-111605000D02*
G75*
G02*
X85890000Y-111605000I1000000J0D01*
G01*
%TO.C,Q3*%
X75150000Y-94750000D02*
X75150000Y-90900000D01*
X72355214Y-95157774D02*
G75*
G02*
X71100000Y-93900000I1094786J2347774D01*
G01*
X75150000Y-94750000D02*
G75*
G02*
X74572045Y-95132631I-1700000J1940000D01*
G01*
X71100000Y-91750000D02*
G75*
G02*
X72360487Y-90473537I2350000J-1060000D01*
G01*
X74562264Y-90507617D02*
G75*
G02*
X75150000Y-90900000I-1112264J-2302383D01*
G01*
%TO.C,J2*%
X85690000Y-98510000D02*
X89710000Y-98510000D01*
X87190000Y-98510000D02*
X87190000Y-97510000D01*
X89710000Y-98510000D02*
X89710000Y-88290000D01*
X88000000Y-98010000D02*
X88000000Y-98510000D01*
X89210000Y-98010000D02*
X88000000Y-98010000D01*
X87190000Y-97510000D02*
X85690000Y-97510000D01*
X87190000Y-89290000D02*
X85690000Y-89290000D01*
X88000000Y-88790000D02*
X89210000Y-88790000D01*
X89210000Y-88790000D02*
X89210000Y-98010000D01*
X85690000Y-88290000D02*
X85690000Y-98510000D01*
X87190000Y-88290000D02*
X87190000Y-89290000D01*
X88000000Y-88290000D02*
X88000000Y-88790000D01*
X89710000Y-88290000D02*
X85690000Y-88290000D01*
X85390000Y-87990000D02*
X85390000Y-90490000D01*
X87890000Y-87990000D02*
X85390000Y-87990000D01*
%TO.C,R4*%
X78170000Y-103470000D02*
X71630000Y-103470000D01*
X78170000Y-103140000D02*
X78170000Y-103470000D01*
X78170000Y-101060000D02*
X78170000Y-100730000D01*
X78170000Y-100730000D02*
X71630000Y-100730000D01*
X71630000Y-103470000D02*
X71630000Y-103140000D01*
X71630000Y-100730000D02*
X71630000Y-101060000D01*
%TD*%
M02*
