%TF.GenerationSoftware,KiCad,Pcbnew,8.0.2*%
%TF.CreationDate,2024-12-10T11:29:45+01:00*%
%TF.ProjectId,R4I_LINEAR_ACTUATOR_CONTROL,5234495f-4c49-44e4-9541-525f41435455,rev?*%
%TF.SameCoordinates,Original*%
%TF.FileFunction,Soldermask,Bot*%
%TF.FilePolarity,Negative*%
%FSLAX46Y46*%
G04 Gerber Fmt 4.6, Leading zero omitted, Abs format (unit mm)*
G04 Created by KiCad (PCBNEW 8.0.2) date 2024-12-10 11:29:45*
%MOMM*%
%LPD*%
G01*
G04 APERTURE LIST*
G04 Aperture macros list*
%AMRoundRect*
0 Rectangle with rounded corners*
0 $1 Rounding radius*
0 $2 $3 $4 $5 $6 $7 $8 $9 X,Y pos of 4 corners*
0 Add a 4 corners polygon primitive as box body*
4,1,4,$2,$3,$4,$5,$6,$7,$8,$9,$2,$3,0*
0 Add four circle primitives for the rounded corners*
1,1,$1+$1,$2,$3*
1,1,$1+$1,$4,$5*
1,1,$1+$1,$6,$7*
1,1,$1+$1,$8,$9*
0 Add four rect primitives between the rounded corners*
20,1,$1+$1,$2,$3,$4,$5,0*
20,1,$1+$1,$4,$5,$6,$7,0*
20,1,$1+$1,$6,$7,$8,$9,0*
20,1,$1+$1,$8,$9,$2,$3,0*%
G04 Aperture macros list end*
%ADD10R,1.600000X1.600000*%
%ADD11C,1.600000*%
%ADD12O,1.600000X1.600000*%
%ADD13RoundRect,0.250000X0.750000X-0.600000X0.750000X0.600000X-0.750000X0.600000X-0.750000X-0.600000X0*%
%ADD14O,2.000000X1.700000*%
%ADD15R,1.700000X1.700000*%
%ADD16O,1.700000X1.700000*%
%ADD17R,1.500000X1.500000*%
%ADD18C,1.500000*%
%ADD19RoundRect,0.250000X-0.725000X0.600000X-0.725000X-0.600000X0.725000X-0.600000X0.725000X0.600000X0*%
%ADD20O,1.950000X1.700000*%
%ADD21RoundRect,0.250000X0.725000X-0.600000X0.725000X0.600000X-0.725000X0.600000X-0.725000X-0.600000X0*%
%ADD22R,2.000000X1.905000*%
%ADD23O,2.000000X1.905000*%
%ADD24RoundRect,0.250000X0.600000X0.750000X-0.600000X0.750000X-0.600000X-0.750000X0.600000X-0.750000X0*%
%ADD25O,1.700000X2.000000*%
G04 APERTURE END LIST*
D10*
%TO.C,C11*%
X124455113Y-96275000D03*
D11*
X121955113Y-96275000D03*
%TD*%
D10*
%TO.C,C10*%
X124505113Y-90600000D03*
D11*
X122005113Y-90600000D03*
%TD*%
%TO.C,R3*%
X78510000Y-107600000D03*
D12*
X70890000Y-107600000D03*
%TD*%
D11*
%TO.C,R6*%
X84010000Y-120300000D03*
D12*
X76390000Y-120300000D03*
%TD*%
D13*
%TO.C,J9*%
X128600000Y-102600000D03*
D14*
X128600000Y-100100000D03*
%TD*%
D10*
%TO.C,C9*%
X122194888Y-117200000D03*
D11*
X124694888Y-117200000D03*
%TD*%
%TO.C,R14*%
X100100000Y-102278000D03*
D12*
X92480000Y-102278000D03*
%TD*%
D10*
%TO.C,C8*%
X122294888Y-111700000D03*
D11*
X124794888Y-111700000D03*
%TD*%
D13*
%TO.C,J4*%
X128600000Y-93800000D03*
D14*
X128600000Y-91300000D03*
%TD*%
D15*
%TO.C,J6*%
X76080000Y-78960000D03*
D16*
X76080000Y-81500000D03*
X73540000Y-78960000D03*
X73540000Y-81500000D03*
X71000000Y-78960000D03*
X71000000Y-81500000D03*
%TD*%
D11*
%TO.C,R1*%
X94100000Y-84910000D03*
D12*
X94100000Y-77290000D03*
%TD*%
%TO.C,A1*%
X118740000Y-84100000D03*
X118740000Y-86640000D03*
X118740000Y-89180000D03*
X118740000Y-91720000D03*
X118740000Y-94260000D03*
X118740000Y-96800000D03*
X118740000Y-99340000D03*
X118740000Y-101880000D03*
X118740000Y-104420000D03*
X118740000Y-106960000D03*
X118740000Y-109500000D03*
X118740000Y-112040000D03*
X118740000Y-114580000D03*
X118740000Y-117120000D03*
X118740000Y-119660000D03*
X103500000Y-119660000D03*
X103500000Y-117120000D03*
X103500000Y-114580000D03*
X103500000Y-112040000D03*
X103500000Y-109500000D03*
X103500000Y-106960000D03*
X103500000Y-104420000D03*
X103500000Y-101880000D03*
X103500000Y-99340000D03*
X103500000Y-96800000D03*
X103500000Y-94260000D03*
X103500000Y-91720000D03*
X103500000Y-89180000D03*
X103500000Y-86640000D03*
D10*
X103500000Y-84100000D03*
%TD*%
D11*
%TO.C,R10*%
X70890000Y-98400000D03*
D12*
X78510000Y-98400000D03*
%TD*%
D17*
%TO.C,Q2*%
X72575000Y-123455000D03*
D18*
X70035000Y-120915000D03*
X72575000Y-118375000D03*
%TD*%
D11*
%TO.C,R13*%
X100090000Y-105400000D03*
D12*
X92470000Y-105400000D03*
%TD*%
D10*
%TO.C,C2*%
X122610000Y-83650000D03*
D11*
X125110000Y-83650000D03*
%TD*%
D10*
%TO.C,U3*%
X88800000Y-116075000D03*
D12*
X88800000Y-113535000D03*
X81180000Y-113535000D03*
X81180000Y-116075000D03*
%TD*%
D10*
%TO.C,C1*%
X122515112Y-78150000D03*
D11*
X125015112Y-78150000D03*
%TD*%
D17*
%TO.C,Q1*%
X65150000Y-102650000D03*
D18*
X67690000Y-105190000D03*
X65150000Y-107730000D03*
%TD*%
D11*
%TO.C,R12*%
X100100000Y-108400000D03*
D12*
X92480000Y-108400000D03*
%TD*%
D11*
%TO.C,C5*%
X91800000Y-91500000D03*
D10*
X94300000Y-91500000D03*
%TD*%
D13*
%TO.C,J8*%
X57300000Y-82800000D03*
D14*
X57300000Y-80300000D03*
%TD*%
D19*
%TO.C,J5*%
X118300000Y-69500000D03*
D20*
X118300000Y-72000000D03*
X118300000Y-74500000D03*
%TD*%
D11*
%TO.C,R5*%
X78510000Y-113500000D03*
D12*
X70890000Y-113500000D03*
%TD*%
D10*
%TO.C,C4*%
X100105113Y-91400000D03*
D11*
X97605113Y-91400000D03*
%TD*%
%TO.C,R7*%
X64790000Y-126100000D03*
D12*
X72410000Y-126100000D03*
%TD*%
D10*
%TO.C,U1*%
X89000000Y-104475000D03*
D12*
X89000000Y-101935000D03*
X81380000Y-101935000D03*
X81380000Y-104475000D03*
%TD*%
D10*
%TO.C,C7*%
X94405113Y-97200000D03*
D11*
X91905113Y-97200000D03*
%TD*%
%TO.C,R9*%
X57490000Y-100100000D03*
D12*
X65110000Y-100100000D03*
%TD*%
D21*
%TO.C,J1*%
X128700000Y-117400000D03*
D20*
X128700000Y-114900000D03*
X128700000Y-112400000D03*
%TD*%
D11*
%TO.C,R8*%
X54390000Y-110700000D03*
D12*
X62010000Y-110700000D03*
%TD*%
D19*
%TO.C,J3*%
X98700000Y-80100000D03*
D20*
X98700000Y-82600000D03*
X98700000Y-85100000D03*
%TD*%
D11*
%TO.C,R11*%
X100100000Y-111500000D03*
D12*
X92480000Y-111500000D03*
%TD*%
D10*
%TO.C,C6*%
X100205113Y-97000000D03*
D11*
X97705113Y-97000000D03*
%TD*%
D10*
%TO.C,U4*%
X94200000Y-122875000D03*
D12*
X94200000Y-120335000D03*
X86580000Y-120335000D03*
X86580000Y-122875000D03*
%TD*%
D17*
%TO.C,Q4*%
X65650000Y-110860000D03*
D18*
X68190000Y-113400000D03*
X65650000Y-115940000D03*
%TD*%
D22*
%TO.C,U6*%
X64600000Y-83200000D03*
D23*
X64600000Y-80660000D03*
X64600000Y-78120000D03*
%TD*%
D11*
%TO.C,R2*%
X83100000Y-96120000D03*
D12*
X83100000Y-88500000D03*
%TD*%
D24*
%TO.C,J7*%
X111400000Y-69600000D03*
D25*
X108900000Y-69600000D03*
%TD*%
D10*
%TO.C,C3*%
X122510000Y-71850000D03*
D11*
X125010000Y-71850000D03*
%TD*%
D10*
%TO.C,U2*%
X88700000Y-110275000D03*
D12*
X88700000Y-107735000D03*
X81080000Y-107735000D03*
X81080000Y-110275000D03*
%TD*%
D17*
%TO.C,Q3*%
X73450000Y-95350000D03*
D18*
X70910000Y-92810000D03*
X73450000Y-90270000D03*
%TD*%
D20*
%TO.C,J2*%
X88000000Y-95900000D03*
X88000000Y-93400000D03*
D19*
X88000000Y-90900000D03*
%TD*%
D11*
%TO.C,R4*%
X78710000Y-102100000D03*
D12*
X71090000Y-102100000D03*
%TD*%
M02*
